<svg preserveAspectRatio="none" width="100%" height="100%" overflow="visible" style="display: block;" viewBox="0 0 36.4499 40.0208" fill="none" xmlns="http://www.w3.org/2000/svg">
<g id="shade-6b">
<path id="Vector" d="M20.5403 39.119C18.6643 39.119 17.6737 38.1284 17.6737 36.2524V34.0342L12.3419 38.4641C11.8943 38.8886 11.2131 39.1223 10.4133 39.1223H3.76182C1.88585 39.1223 0.895203 38.1317 0.895203 36.2557V8.44518C0.895203 7.46441 1.19141 6.72718 1.79698 6.18743L7.34921 1.49419C7.80998 1.09925 8.46821 0.895203 9.30088 0.895203H15.9524C17.8284 0.895203 18.819 1.88585 18.819 3.76182V5.52589L23.4431 1.61926C24.0586 1.12558 24.8188 0.891909 25.7799 0.891909H32.3886C33.6655 0.891909 34.2645 1.39875 34.541 1.82003C34.8174 2.24459 35.0445 2.99169 34.541 4.15677L30.8549 12.5987C33.784 13.4675 35.558 16.005 35.558 19.4641V31.5658C35.558 32.5432 35.2618 33.2838 34.6562 33.8202L29.0809 38.4542C28.6333 38.8788 27.952 39.1125 27.1523 39.1125H20.5436L20.5403 39.119Z" fill="var(--fill-0, black)"/>
<path id="Vector_2" d="M32.3853 1.79041C33.8005 1.79041 34.2744 2.52105 33.7149 3.8079L29.5943 13.2503C32.6848 13.6782 34.6595 15.9984 34.6595 19.4739V31.5756C34.6595 32.3491 34.4455 32.8197 34.0572 33.162L28.4786 37.796C28.2219 38.0527 27.748 38.2238 27.149 38.2238H20.5403C19.1679 38.2238 18.5656 37.6215 18.5656 36.2491V27.8796C18.5656 27.3201 18.3516 26.9778 17.9205 26.8923V31.569C17.9205 32.3425 17.7066 32.8131 17.3182 33.1554L11.7397 37.7894C11.4829 38.0461 11.009 38.2172 10.41 38.2172H3.75853C2.3861 38.2172 1.78382 37.615 1.78382 36.2425V8.43202C1.78382 7.65859 1.99775 7.18795 2.38611 6.84566L7.92188 2.16889C8.22137 1.91218 8.69531 1.78382 9.29431 1.78382H15.9458C17.3182 1.78382 17.9205 2.3861 17.9205 3.75853V7.66516C18.0916 7.40845 18.2628 7.15174 18.48 6.97731L24.0158 2.30054C24.4436 1.95825 25.0031 1.78711 25.7766 1.78711H32.3853M32.3853 0.00328436H25.7766C24.6049 0.00328436 23.6636 0.299494 22.9001 0.911655L22.8803 0.928117L22.8606 0.944569L19.7076 3.61043C19.6451 1.34939 18.2496 0.00657876 15.9491 0.00657876H9.2976C8.24771 0.00657876 7.392 0.279751 6.76009 0.822796L1.23419 5.49299L1.21773 5.50615L1.20128 5.52261C0.404814 6.23021 0 7.21427 0 8.44847V36.259C0 38.6155 1.40533 40.0208 3.76182 40.0208H10.4133C11.4303 40.0208 12.3189 39.7082 12.9344 39.1388L16.7785 35.943V36.2557C16.7785 38.6122 18.1838 40.0175 20.5403 40.0175H27.149C28.166 40.0175 29.0546 39.7049 29.67 39.1355L35.2025 34.541L35.2256 34.5212L35.2486 34.5015C36.0451 33.7939 36.4499 32.8098 36.4499 31.5756V19.4739C36.4499 16.0248 34.7812 13.3227 32.0496 12.1017L35.3572 4.52209C36.022 2.9851 35.6863 1.9418 35.2881 1.33293C34.8899 0.724057 34.0605 0 32.3886 0L32.3853 0.00328436Z" fill="var(--fill-0, black)"/>
</g>
</svg>
