<svg preserveAspectRatio="none" width="100%" height="100%" overflow="visible" style="display: block;" viewBox="0 0 35.7225 40.0142" fill="none" xmlns="http://www.w3.org/2000/svg">
<g id="shade-54-2">
<path id="Vector" d="M11.6146 39.1223C9.73862 39.1223 8.74797 38.1317 8.74797 36.2557V16.5086H3.76183C1.88585 16.5086 0.895203 15.5179 0.895203 13.642V8.44847C0.895203 7.4677 1.19141 6.73047 1.79699 6.19072L7.34922 1.49749C7.80998 1.10254 8.46822 0.901782 9.30089 0.901782H31.9607C33.8367 0.901782 34.8273 1.89243 34.8273 3.7684V8.96189C34.8273 9.94267 34.5311 10.6799 33.9255 11.2197L28.3503 15.8536C28.0113 16.1762 27.5341 16.3901 26.9746 16.4724V31.5822C26.9746 32.563 26.6784 33.3002 26.0728 33.84L20.4975 38.4707C20.0499 38.8952 19.3686 39.1289 18.5689 39.1289H11.6179L11.6146 39.1223Z" fill="var(--fill-0, black)"/>
<path id="Vector_2" d="M31.9574 1.79369C33.3298 1.79369 33.9321 2.39598 33.9321 3.7684V8.96189C33.9321 9.73532 33.7182 10.206 33.3298 10.5482L27.7513 15.1822C27.4946 15.4389 27.0206 15.6101 26.4216 15.6101H26.0794V31.5756C26.0794 32.3491 25.8654 32.8197 25.4771 33.162L19.8985 37.796C19.6418 38.0527 19.1679 38.2238 18.5689 38.2238H11.6179C10.2455 38.2238 9.64317 37.6215 9.64317 36.2491V15.6068H3.76511C2.39269 15.6068 1.7904 15.0045 1.7904 13.6321V8.4386C1.7904 7.66517 2.00433 7.19452 2.39269 6.85224L7.92847 2.17547C8.22797 1.91876 8.7019 1.79041 9.30089 1.79041H31.9607M31.9574 0.00328436H9.2976C8.24771 0.00328436 7.392 0.276456 6.7601 0.819502L1.23419 5.4897L1.21774 5.50286L1.20128 5.51602C0.404816 6.22363 0 7.20769 0 8.44189V13.6354C0 15.9919 1.40534 17.3972 3.76183 17.3972H7.85277V36.2524C7.85277 38.6089 9.25811 40.0142 11.6146 40.0142H18.5656C19.5826 40.0142 20.4712 39.7016 21.0866 39.1322L26.6191 34.5377L26.6422 34.5179L26.6652 34.4982C27.4617 33.7906 27.8665 32.8065 27.8665 31.5723V17.1569C28.2779 17.0088 28.6432 16.7916 28.9427 16.5152L34.4752 11.9207L34.4982 11.9009L34.5212 11.8812C35.3177 11.1736 35.7225 10.1895 35.7225 8.95531V3.76182C35.7225 1.40533 34.3172 0 31.9607 0L31.9574 0.00328436Z" fill="var(--fill-0, black)"/>
</g>
</svg>
