<svg preserveAspectRatio="none" width="100%" height="100%" overflow="visible" style="display: block;" viewBox="0 0 27.2543 31.7599" fill="none" xmlns="http://www.w3.org/2000/svg">
<path id="outline-6e-2" d="M8.41227 31.7599C9.78469 31.7599 10.387 31.1577 10.387 29.7852V16.8245L16.8673 24.6773V29.7852C16.8673 31.1577 17.4696 31.7599 18.842 31.7599H25.2796C26.652 31.7599 27.2543 31.1577 27.2543 29.7852V1.97471C27.2543 0.602287 26.652 0 25.2796 0H18.842C17.4696 0 16.8673 0.602287 16.8673 1.97471V9.91305L9.31406 1.28684C8.45506 0.342275 7.68163 0 6.43756 0H1.97471C0.602287 0 0 0.602287 0 1.97471V29.7852C0 31.1577 0.602287 31.7599 1.97471 31.7599H8.41227Z" fill="var(--fill-0, black)"/>
</svg>
