<svg preserveAspectRatio="none" width="100%" height="100%" overflow="visible" style="display: block;" viewBox="0 0 36.3676 40.0175" fill="none" xmlns="http://www.w3.org/2000/svg">
<g id="shade-6e">
<path id="Vector" d="M20.6324 39.1157C18.7565 39.1157 17.7658 38.1251 17.7658 36.2491V33.7742C17.7461 33.7906 17.7296 33.8104 17.7099 33.8268L12.1346 38.4608C11.687 38.8854 11.0057 39.119 10.206 39.119H3.76841C1.89243 39.119 0.898492 38.1284 0.898492 36.2524V8.4419C0.898492 7.46113 1.1947 6.7239 1.80027 6.18414L7.3525 1.49091C7.81327 1.09596 8.47151 0.891919 9.30418 0.891919H13.767C15.2579 0.891919 16.2848 1.34939 17.3051 2.47168L19.7076 5.25602L24.2264 1.48433C24.6806 1.09268 25.3388 0.891919 26.1715 0.891919H32.6091C34.485 0.891919 35.479 1.88256 35.479 3.75854V31.5691C35.479 32.5465 35.1828 33.2871 34.5772 33.8268L29.0019 38.4608C28.5543 38.8854 27.8731 39.119 27.0733 39.119H20.6357L20.6324 39.1157Z" fill="var(--fill-0, black)"/>
<path id="Vector_2" d="M32.6058 1.78712C33.9782 1.78712 34.5805 2.38941 34.5805 3.76183V31.5724C34.5805 32.3458 34.3666 32.8164 33.9782 33.1587L28.3996 37.7927C28.1429 38.0494 27.669 38.2205 27.07 38.2205H20.6324C19.26 38.2205 18.6577 37.6183 18.6577 36.2458V31.1379L17.7132 29.9794V31.5658C17.7132 32.3392 17.4992 32.8098 17.1109 33.1521L11.5323 37.7861C11.2756 38.0428 10.8017 38.214 10.2027 38.214H3.76511C2.39269 38.214 1.7904 37.6117 1.7904 36.2393V8.42873C1.7904 7.6553 2.00433 7.18466 2.39269 6.84238L7.92846 2.16561C8.22796 1.90889 8.70189 1.78053 9.30089 1.78053H13.7637C15.0078 1.78053 15.7812 2.12282 16.6402 3.06739L19.6023 6.50009L24.7958 2.16561C25.0953 1.90889 25.5692 1.78053 26.1682 1.78053H32.6058M32.6058 0H26.1682C25.1216 0 24.2725 0.273172 23.6406 0.806345L19.8064 4.00867L17.9929 1.90889L17.9765 1.89243L17.96 1.87598C16.7653 0.562797 15.5114 0.0032944 13.7604 0.0032944H9.29759C8.24771 0.0032944 7.392 0.276466 6.76009 0.819512L1.23419 5.48971L1.21774 5.50286L1.20128 5.51933C0.404814 6.22693 0 7.21099 0 8.44518V36.2557C0 38.6122 1.40533 40.0175 3.76182 40.0175H10.1994C11.2164 40.0175 12.105 39.7049 12.7204 39.1355L16.8673 35.6896V36.2524C16.8673 38.6089 18.2727 40.0142 20.6292 40.0142H27.0667C28.0837 40.0142 28.9723 39.7016 29.5878 39.1322L35.1202 34.5377L35.1433 34.518L35.1663 34.4982C35.9628 33.7906 36.3676 32.8065 36.3676 31.5724V3.76183C36.3676 1.40534 34.9623 0 32.6058 0Z" fill="var(--fill-0, black)"/>
</g>
</svg>
