<svg preserveAspectRatio="none" width="100%" height="100%" overflow="visible" style="display: block;" viewBox="0 0 23.8611 31.7632" fill="none" xmlns="http://www.w3.org/2000/svg">
<path id="outline-65" d="M1.97471 31.7632H21.8864C23.2588 31.7632 23.8611 31.161 23.8611 29.7885V24.7662C23.8611 23.3937 23.2588 22.7915 21.8864 22.7915H10.4693V19.9578H18.4076C19.78 19.9578 20.3823 19.3555 20.3823 17.983V13.3918C20.3823 12.0194 19.78 11.4171 18.4076 11.4171H10.4693V8.97178H21.8864C23.2588 8.97178 23.8611 8.36949 23.8611 6.99706V1.97471C23.8611 0.602287 23.2588 0 21.8864 0H1.97471C0.602287 0 0 0.602287 0 1.97471V29.7852C0 31.1577 0.602287 31.7599 1.97471 31.7599V31.7632Z" fill="var(--fill-0, black)"/>
</svg>
