<svg preserveAspectRatio="none" width="100%" height="100%" overflow="visible" style="display: block;" viewBox="0 0 36.5322 40.0142" fill="none" xmlns="http://www.w3.org/2000/svg">
<g id="shade-64">
<path id="Vector" d="M3.76182 39.1223C1.88585 39.1223 0.891909 38.1317 0.891909 36.2557V8.44518C0.891909 7.46441 1.18812 6.72718 1.7937 6.18743L7.34593 1.49419C7.8067 1.09925 8.46493 0.898487 9.2976 0.898487H23.7591C31.7534 0.898487 35.6403 4.19625 35.6403 10.9761V24.3646C35.6403 27.7612 34.6529 30.2559 32.6255 31.9969L27.0371 36.6408C25.1117 38.2831 22.1431 39.1223 18.2266 39.1223H3.76512H3.76182Z" fill="var(--fill-0, black)"/>
<path id="Vector_2" d="M23.7591 1.79369C31.3123 1.79369 34.7451 4.75576 34.7451 10.9794V24.3679C34.7451 27.5011 33.8433 29.7754 32.0397 31.3189L26.4611 35.9529C24.7003 37.4537 21.9555 38.2271 18.22 38.2271H3.75854C2.38611 38.2271 1.78383 37.6248 1.78383 36.2524V8.44189C1.78383 7.66846 1.99775 7.19782 2.38611 6.85554L7.92189 2.17876C8.22138 1.92205 8.69531 1.79369 9.29431 1.79369H23.7558M17.9238 24.5819H18.6544V17.1569C18.6544 16.3835 18.4405 15.8701 17.9238 15.6562V24.5819ZM23.7591 0.00328436H9.2976C8.24771 0.00328436 7.39201 0.276456 6.7601 0.819502L1.23419 5.4897L1.21774 5.50286L1.20128 5.51602C0.404814 6.22363 0 7.20769 0 8.44189V36.2524C0 38.6089 1.40533 40.0142 3.76182 40.0142H18.2233C22.3537 40.0142 25.5133 39.1092 27.6163 37.3188L33.185 32.6913L33.1949 32.6815L33.2048 32.6716C35.4132 30.7792 36.5322 27.9817 36.5322 24.3614V10.9728C36.5322 3.69271 32.2339 0 23.7591 0V0.00328436Z" fill="var(--fill-0, black)"/>
</g>
</svg>
