<svg preserveAspectRatio="none" width="100%" height="100%" overflow="visible" style="display: block;" viewBox="0 0 37.0522 40.0142" fill="none" xmlns="http://www.w3.org/2000/svg">
<g id="shade-72">
<path id="Vector" d="M21.0998 39.1157C19.2238 39.1157 18.2332 38.1251 18.2332 36.2491V33.4384C18.1279 33.5767 18.0094 33.7083 17.8777 33.8268L12.3025 38.4608C11.8549 38.8854 11.1736 39.119 10.3738 39.119H3.76512C1.88914 39.119 0.898507 38.1284 0.898507 36.2524V8.4419C0.898507 7.46442 1.19471 6.7239 1.80029 6.18744L7.35252 1.4942C7.81328 1.09926 8.47152 0.895203 9.30419 0.895203H23.5945C30.1736 0.895203 33.3726 3.67297 33.3726 9.38647V11.3612C33.3726 13.1812 33.0336 14.6063 32.3392 15.6792C34.7582 16.8904 36.1636 19.3423 36.1636 22.4788V31.5756C36.1636 32.5531 35.8673 33.2936 35.2618 33.8334L29.6865 38.4674C29.2389 38.8919 28.5576 39.1256 27.7579 39.1256H21.1064L21.0998 39.1157Z" fill="var(--fill-0, black)"/>
<path id="Vector_2" d="M23.5879 1.78712C30.4106 1.78712 32.4708 4.92033 32.4708 9.38317V11.3579C32.4708 13.461 32.0002 15.0473 30.8384 16.0347H30.7956C33.501 16.8081 35.2585 19.0823 35.2585 22.4722V31.5691C35.2585 32.3425 35.0446 32.8131 34.6562 33.1554L29.0776 37.7894C28.8209 38.0461 28.347 38.2173 27.748 38.2173H21.0965C19.7241 38.2173 19.1218 37.615 19.1218 36.2425V29.6766C19.1218 28.7321 18.8223 28.2614 17.9205 28.2614H17.8777V31.5658C17.8777 32.3392 17.6638 32.8098 17.2754 33.1521L11.6969 37.7861C11.4402 38.0428 10.9662 38.214 10.3672 38.214H3.75855C2.38612 38.214 1.78384 37.6117 1.78384 36.2393V8.42873C1.78384 7.6553 1.99775 7.18466 2.38611 6.84238L7.92189 2.16561C8.22138 1.90889 8.69533 1.78053 9.29432 1.78053H23.5846M23.5879 0H9.2976C8.24771 0 7.39202 0.273172 6.76011 0.816218L1.23419 5.48641L1.21774 5.49958L1.20129 5.51603C0.404824 6.22364 0 7.2077 0 8.4419V36.2524C0 38.6089 1.40535 40.0142 3.76184 40.0142H10.3705C11.3875 40.0142 12.2761 39.7016 12.8916 39.1322L17.338 35.4395V36.2524C17.338 38.6089 18.7433 40.0142 21.0998 40.0142H27.7513C28.7683 40.0142 29.6569 39.7016 30.2723 39.1322L35.8048 34.5377L35.8279 34.518L35.8509 34.4982C36.6474 33.7906 37.0522 32.8065 37.0522 31.5724V22.4755C37.0522 19.3357 35.7752 16.8048 33.5372 15.3369C34.0243 14.2541 34.2613 12.9377 34.2613 11.3612V9.38647C34.2613 6.44086 33.4714 4.23247 31.8422 2.63624C30.0321 0.862294 27.3333 0 23.5912 0H23.5879Z" fill="var(--fill-0, black)"/>
</g>
</svg>
