<svg preserveAspectRatio="none" width="100%" height="100%" overflow="visible" style="display: block;" viewBox="0 0 31.3485 40.0175" fill="none" xmlns="http://www.w3.org/2000/svg">
<g id="shade-69">
<path id="Vector" d="M3.76182 39.1157C1.88585 39.1157 0.891914 38.1251 0.891914 36.2491V31.1412C0.891914 30.1637 1.18812 29.4232 1.7937 28.8834L6.68769 24.7596V16.4987H3.76182C1.88585 16.4987 0.891914 15.5081 0.891914 13.6321V8.43861C0.891914 7.45783 1.18812 6.7206 1.7937 6.18085L7.34593 1.48762C7.8067 1.09268 8.46493 0.888624 9.2976 0.888624H27.5801C29.4561 0.888624 30.4468 1.87927 30.4468 3.75524V8.94874C30.4468 9.92622 30.1506 10.6667 29.545 11.2032L24.7366 15.2448V23.5912H27.5768C29.4528 23.5912 30.4435 24.5819 30.4435 26.4611V31.5691C30.4435 32.5465 30.1473 33.2871 29.5417 33.8235L23.9664 38.4575C23.5188 38.8821 22.8375 39.1157 22.0378 39.1157H3.75524H3.76182Z" fill="var(--fill-0, black)"/>
<path id="Vector_2" d="M27.5801 1.78712C28.9526 1.78712 29.5548 2.38941 29.5548 3.76183V8.95532C29.5548 9.72875 29.3409 10.1994 28.9526 10.5417L23.8446 14.8334V24.4897H27.5768C28.9493 24.4897 29.5516 25.092 29.5516 26.4644V31.5724C29.5516 32.3458 29.3376 32.8164 28.9493 33.1587L23.3707 37.7927C23.114 38.0494 22.6401 38.2205 22.0411 38.2205H3.75853C2.38611 38.2205 1.78382 37.6183 1.78382 36.2458V31.1379C1.78382 30.3645 1.99775 29.8938 2.38611 29.5516L7.5796 25.1743V15.6035H3.75853C2.38611 15.6035 1.78382 15.0012 1.78382 13.6288V8.43531C1.78382 7.66188 1.99775 7.19125 2.38611 6.84897L7.92189 2.17218C8.22138 1.91547 8.69531 1.78712 9.29431 1.78712H27.5768M27.5801 0H9.2976C8.24771 0 7.392 0.273172 6.76009 0.816218L1.23419 5.48641L1.21774 5.49958L1.20128 5.51603C0.404814 6.22364 0 7.2077 0 8.4419V13.6354C0 15.9919 1.40533 17.3972 3.76182 17.3972H5.79249V24.3482L1.23419 28.189L1.21774 28.2055L1.20128 28.2219C0.404814 28.9295 0 29.9136 0 31.1478V36.2557C0 38.6122 1.40533 40.0175 3.76182 40.0175H22.0444C23.0613 40.0175 23.95 39.7049 24.5654 39.1355L30.0979 34.541L30.1209 34.5213L30.144 34.5015C30.9404 33.7939 31.3453 32.8098 31.3453 31.5756V26.4677C31.3453 24.1112 29.9399 22.7059 27.5834 22.7059H25.6383V15.6693L30.1078 11.9141L30.1275 11.8976L30.1473 11.8812C30.9437 11.1736 31.3485 10.1895 31.3485 8.95532V3.76183C31.3485 1.40534 29.9432 0 27.5867 0H27.5801Z" fill="var(--fill-0, black)"/>
</g>
</svg>
