<svg preserveAspectRatio="none" width="100%" height="100%" overflow="visible" style="display: block;" viewBox="0 0 36.3676 40.0175" fill="none" xmlns="http://www.w3.org/2000/svg">
<g id="shade-6e-2">
<path id="Vector" d="M20.6324 39.119C18.7565 39.119 17.7658 38.1284 17.7658 36.2524V33.7774C17.7461 33.7939 17.7296 33.8136 17.7099 33.8301L12.1346 38.4608C11.687 38.8854 11.0057 39.119 10.206 39.119H3.7684C1.89243 39.119 0.901782 38.1284 0.901782 36.2524V8.4419C0.901782 7.46442 1.198 6.7239 1.80357 6.18744L7.3558 1.4942C7.81657 1.09926 8.4748 0.898497 9.30747 0.898497H13.7703C15.2612 0.898497 16.2881 1.35597 17.3083 2.47826L19.7109 5.26261L24.2297 1.49091C24.6872 1.09926 25.3454 0.898497 26.1748 0.898497H32.6124C34.4883 0.898497 35.479 1.88914 35.479 3.76512V31.5756C35.479 32.5564 35.1828 33.2936 34.5772 33.8334L29.0019 38.4641C28.5543 38.8886 27.8731 39.1223 27.0733 39.1223H20.6357L20.6324 39.119Z" fill="var(--fill-0, black)"/>
<path id="Vector_2" d="M32.6058 1.79041C33.9782 1.79041 34.5805 2.39269 34.5805 3.76512V31.5756C34.5805 32.3491 34.3666 32.8197 33.9782 33.162L28.3996 37.796C28.1429 38.0527 27.669 38.2238 27.07 38.2238H20.6324C19.26 38.2238 18.6577 37.6215 18.6577 36.2491V31.1412L17.7132 29.9827V31.5691C17.7132 32.3425 17.4992 32.8131 17.1109 33.1554L11.5323 37.7894C11.2756 38.0461 10.8017 38.2172 10.2027 38.2172H3.76512C2.39269 38.2172 1.79041 37.615 1.79041 36.2425V8.43202C1.79041 7.65859 2.00433 7.18796 2.39269 6.84567L7.92847 2.16889C8.22796 1.91218 8.7019 1.78383 9.30089 1.78383H13.7637C15.0078 1.78383 15.7812 2.12611 16.6402 3.07068L19.6023 6.50339L24.7958 2.16889C25.0953 1.91218 25.5692 1.78383 26.1682 1.78383H32.6058M32.6058 0H26.1682C25.1216 0 24.2725 0.273172 23.6406 0.806345L19.8064 4.00867L17.9929 1.90889L17.9765 1.89243L17.96 1.87598C16.7653 0.562797 15.5114 0.0032944 13.7604 0.0032944H9.2976C8.24771 0.0032944 7.39201 0.276466 6.7601 0.819512L1.23419 5.48971L1.21773 5.50286L1.20128 5.51933C0.404814 6.22693 0 7.21099 0 8.44518V36.2557C0 38.6122 1.40533 40.0175 3.76182 40.0175H10.1994C11.2164 40.0175 12.105 39.7049 12.7204 39.1355L16.8673 35.6896V36.2524C16.8673 38.6089 18.2727 40.0142 20.6292 40.0142H27.0667C28.0837 40.0142 28.9723 39.7016 29.5878 39.1322L35.1202 34.5377L35.1433 34.518L35.1663 34.4982C35.9628 33.7906 36.3676 32.8065 36.3676 31.5724V3.76183C36.3676 1.40534 34.9623 0 32.6058 0Z" fill="var(--fill-0, black)"/>
</g>
</svg>
