<svg preserveAspectRatio="none" width="100%" height="100%" overflow="visible" style="display: block;" viewBox="0 0 26.3887 30.9009" fill="none" xmlns="http://www.w3.org/2000/svg">
<path id="regular-6e-2" d="M7.98113 30.9009C9.05405 30.9009 9.52469 30.4303 9.52469 29.3574V15.1954L16.864 24.0783V29.3574C16.864 30.4303 17.3347 30.9009 18.4076 30.9009H24.8452C25.9181 30.9009 26.3887 30.4303 26.3887 29.3574V1.54685C26.3887 0.473925 25.9181 0.00328436 24.8452 0.00328436H18.4076C17.3347 0.00328436 16.864 0.473925 16.864 1.54685V10.6865L8.53734 1.15849C7.80669 0.299494 7.12213 0 6.00641 0H1.54357C0.47064 0 0 0.47064 0 1.54357V29.3541C0 30.427 0.47064 30.8976 1.54357 30.8976H7.98113V30.9009Z" fill="var(--fill-0, #1FDEE4)"/>
</svg>
