<svg preserveAspectRatio="none" width="100%" height="100%" overflow="visible" style="display: block;" viewBox="0 0 6.47047 8.55708" fill="none" xmlns="http://www.w3.org/2000/svg">
<path id="Vector" d="M0.799756 7.45454C0.266584 6.72061 0 5.66084 0 4.27854C0 2.89624 0.266584 1.83649 0.799756 1.10256C1.33293 0.368625 2.14585 0 3.23523 0C4.32461 0 5.13753 0.368625 5.67071 1.10256C6.20388 1.83649 6.47047 2.89624 6.47047 4.27854C6.47047 5.66084 6.20388 6.72061 5.67071 7.45454C5.13753 8.18848 4.32461 8.55708 3.23523 8.55708C2.14585 8.55708 1.33293 8.18848 0.799756 7.45454ZM4.32461 6.61857C4.54512 6.25983 4.65703 5.73655 4.65703 5.04869V3.50842C4.65703 2.82056 4.54512 2.29725 4.32461 1.93851C4.1041 1.57977 3.73878 1.39875 3.23523 1.39875C2.73168 1.39875 2.36636 1.57977 2.14585 1.93851C1.92534 2.29725 1.81344 2.82056 1.81344 3.50842V5.04869C1.81344 5.73655 1.92205 6.25983 2.14585 6.61857C2.36636 6.97731 2.73168 7.15833 3.23523 7.15833C3.73878 7.15833 4.1041 6.9806 4.32461 6.61857ZM2.49801 4.4102V4.15018C2.49801 3.77169 2.74155 3.58081 3.23194 3.58081C3.72232 3.58081 3.96587 3.77169 3.96587 4.15018V4.4102C3.96587 4.78868 3.72232 4.97957 3.23194 4.97957C2.74155 4.97957 2.49801 4.78868 2.49801 4.4102Z" fill="var(--fill-0, black)"/>
</svg>
