<svg preserveAspectRatio="none" width="100%" height="100%" overflow="visible" style="display: block;" viewBox="0 0 150 156" fill="none" xmlns="http://www.w3.org/2000/svg">
<g id="Group 1023">
<g id="Group">
<path id="Ellipse 261" d="M140 85.0001C140 104.049 132.281 121.294 119.801 133.78C107.313 146.273 90.059 154 71 154C32.8924 154 2 123.108 2 85.0001C2 65.9514 9.71886 48.7057 22.1994 36.2199C34.6867 23.7274 51.941 16.0001 71 16.0001C109.108 16.0001 140 46.8924 140 85.0001Z" fill="var(--fill-0, #252525)" stroke="var(--stroke-0, #252525)" stroke-width="4"/>
<path id="3 0" d="M148 77.0001C148 38.8924 117.108 8.00006 79 8.00006L71 16.0001C109.108 16.0001 140 46.8924 140 85.0001L148 77.0001Z" fill="var(--fill-0, #252525)" stroke="var(--stroke-0, #252525)" stroke-width="4" stroke-linejoin="round"/>
<path id="0 4" d="M127.801 125.78C140.281 113.294 148 96.0487 148 77.0001L140 85.0001C140 104.049 132.281 121.294 119.801 133.78L127.801 125.78Z" fill="var(--fill-0, #252525)" stroke="var(--stroke-0, #252525)" stroke-width="4" stroke-linejoin="round"/>
<g id="5 3">
<path d="M79 8.00006C59.9409 8.00006 42.6867 15.7274 30.1993 28.2199L22.2198 36.1994C34.7056 23.7189 51.9513 16.0001 71 16.0001L79 8.00006Z" fill="var(--fill-0, #252525)"/>
<path d="M30.1993 28.2199C42.6867 15.7274 59.9409 8.00006 79 8.00006L71 16.0001C51.9409 16.0001 34.6867 23.7274 22.1993 36.2199L30.1993 28.2199Z" stroke="var(--stroke-0, #252525)" stroke-width="4" stroke-linejoin="round"/>
</g>
<g id="4 1">
<path d="M79 145.999C98.0486 145.999 115.294 138.28 127.78 125.8L119.801 133.779C107.313 146.272 90.059 153.999 71 153.999L79 145.999Z" fill="var(--fill-0, #252525)"/>
<path d="M127.801 125.779C115.313 138.272 98.059 145.999 79 145.999L71 153.999C90.059 153.999 107.313 146.272 119.801 133.779L127.801 125.779Z" stroke="var(--stroke-0, #252525)" stroke-width="4" stroke-linejoin="round"/>
</g>
<path id="2 5" d="M30.1994 28.2208C17.7189 40.7065 10 57.9523 10 77.0009L2 85.0009C2 65.9523 9.71886 48.7065 22.1994 36.2208L30.1994 28.2208Z" fill="var(--fill-0, #252525)" stroke="var(--stroke-0, #252525)" stroke-width="4" stroke-linejoin="round"/>
<path id="1 2" d="M10 77.0001C10 115.108 40.8924 146 79 146L71 154C32.8924 154 2 123.108 2 85.0001L10 77.0001Z" fill="var(--fill-0, #252525)" stroke="var(--stroke-0, #252525)" stroke-width="4" stroke-linejoin="round"/>
</g>
<circle id="Ellipse 261_2" cx="79" cy="77.0001" r="69" fill="var(--fill-0, #FFE14D)" stroke="var(--stroke-0, #252525)" stroke-width="4"/>
<circle id="Ellipse 265" cx="79" cy="77.0001" r="29" fill="var(--fill-0, #2ee8d5)" stroke="var(--stroke-0, #252525)" stroke-width="4"/>
<g id="Group_2">
<path id="Rectangle 974" d="M74 8.00006H82V48.0001H74V8.00006Z" fill="var(--fill-0, #2ee8d5)" stroke="var(--stroke-0, #252525)" stroke-width="4" stroke-linejoin="round"/>
<path id="0 1" d="M88 2.00006H80L74 8.00006H82L88 2.00006Z" fill="var(--fill-0, #2ee8d5)" stroke="var(--stroke-0, #252525)" stroke-width="4" stroke-linejoin="round"/>
<path id="1 2_2" d="M88 42.0001V2.00006L82 8.00006V48.0001L88 42.0001Z" fill="var(--fill-0, #2ee8d5)" stroke="var(--stroke-0, #252525)" stroke-width="4" stroke-linejoin="round"/>
<path id="3 0_2" d="M80 2.00006V42.0001L74 48.0001V8.00006L80 2.00006Z" fill="var(--fill-0, #252525)" stroke="var(--stroke-0, #252525)" stroke-width="4" stroke-linejoin="round"/>
<path id="2 3" d="M80 42.0001H88L82 48.0001H74L80 42.0001Z" fill="var(--fill-0, #2ee8d5)" stroke="var(--stroke-0, #252525)" stroke-width="4" stroke-linejoin="round"/>
</g>
<g id="Rectangle 974_2">
<path d="M80 2.00006H88V42.0001H80V2.00006Z" fill="var(--fill-0, #2ee8d5)"/>
<path d="M80 2.00006V5.84126e-05C78.8954 5.84126e-05 78 0.895489 78 2.00006L80 2.00006ZM88 2.00006H90C90 0.895489 89.1046 5.84126e-05 88 5.84126e-05V2.00006ZM88 42.0001V44.0001C89.1046 44.0001 90 43.1046 90 42.0001H88ZM80 42.0001H78C78 43.1046 78.8954 44.0001 80 44.0001V42.0001ZM80 2.00006V4.00006H88V2.00006V5.84126e-05H80V2.00006ZM88 2.00006H86V42.0001H88H90V2.00006H88ZM88 42.0001V40.0001H80V42.0001V44.0001H88V42.0001ZM80 42.0001H82V2.00006H80H78V42.0001H80Z" fill="var(--stroke-0, #252525)"/>
</g>
<g id="Group 1017">
<g id="Union">
<path d="M85 42.0001C101.016 42.0001 114 54.9838 114 71.0001L113.99 71.7481C113.795 79.4569 110.592 86.4183 105.511 91.502L99.5107 97.502C98.5267 98.4865 97.4722 99.4009 96.3555 100.236C95.4248 100.933 94.4508 101.574 93.4385 102.156C93.0334 102.389 92.6221 102.613 92.2051 102.826C91.1629 103.36 90.0841 103.833 88.9736 104.239C88.0849 104.565 87.176 104.848 86.249 105.087C85.7856 105.206 85.3178 105.315 84.8457 105.411C84.3739 105.508 83.8978 105.593 83.418 105.666C81.9775 105.886 80.502 106 79 106C62.9837 106 50 93.0163 50 77.0001C50 72.2465 51.1436 67.76 53.1709 63.8008C53.2776 63.5924 53.3865 63.3852 53.498 63.1797C54.8366 60.7149 56.5223 58.4659 58.4893 56.4981L64.4893 50.4981C69.7376 45.2476 76.9897 42.0001 85 42.0001ZM67.7148 50.2774C67.4959 50.37 67.2786 50.4658 67.0625 50.5635C67.2767 50.4667 67.4921 50.3721 67.709 50.2803L67.7148 50.2774ZM70.3789 49.3028C69.9231 49.4445 69.4722 49.5975 69.0264 49.7608C69.4706 49.5981 69.9199 49.446 70.374 49.3047L70.3789 49.3028ZM73.1572 48.5889C72.6037 48.7022 72.0562 48.8323 71.5146 48.9766C72.0552 48.8326 72.6018 48.703 73.1543 48.5899L73.1572 48.5889ZM75.8682 48.168C75.5265 48.2047 75.1866 48.2475 74.8486 48.296C75.1866 48.2475 75.5265 48.2047 75.8682 48.168Z" fill="var(--fill-0, #252525)"/>
<path d="M85 42.0001V40.0001V40.0001V42.0001ZM114 71.0001L116 71.0262C116 71.0175 116 71.0088 116 71.0001H114ZM113.99 71.7481L115.99 71.7987C115.99 71.7906 115.99 71.7824 115.99 71.7742L113.99 71.7481ZM105.511 91.502L106.925 92.9162L106.925 92.9159L105.511 91.502ZM99.5107 97.502L98.0965 96.0878L98.0962 96.0881L99.5107 97.502ZM96.3555 100.236L97.5535 101.838L97.5535 101.838L96.3555 100.236ZM93.4385 102.156L92.4413 100.423L92.4413 100.423L93.4385 102.156ZM92.2051 102.826L93.117 104.606L93.117 104.606L92.2051 102.826ZM88.9736 104.239L88.2858 102.361V102.361L88.9736 104.239ZM86.249 105.087L86.7475 107.024H86.7475L86.249 105.087ZM84.8457 105.411L84.4447 103.452V103.452L84.8457 105.411ZM83.418 105.666L83.7202 107.643V107.643L83.418 105.666ZM53.1709 63.8008L54.9511 64.7124L54.9511 64.7124L53.1709 63.8008ZM53.498 63.1797L51.7405 62.2253L51.7405 62.2253L53.498 63.1797ZM58.4893 56.4981L57.075 55.0839L57.0747 55.0842L58.4893 56.4981ZM64.4893 50.4981L65.9035 51.9123L65.9038 51.912L64.4893 50.4981ZM67.7148 50.2774L68.6093 52.0663C69.5751 51.5834 69.9832 50.421 69.5312 49.4403C69.0793 48.4596 67.9305 48.0148 66.936 48.4353L67.7148 50.2774ZM66.2383 48.7412C65.2319 49.1964 64.785 50.3813 65.2402 51.3877C65.6954 52.3941 66.8802 52.841 67.8867 52.3858L67.0625 50.5635L66.2383 48.7412ZM67.709 50.2803L68.4883 52.1223C68.5272 52.1058 68.5656 52.0881 68.6034 52.0692L67.709 50.2803ZM70.3789 49.3028L71.1217 51.1597C72.1187 50.7609 72.6229 49.646 72.2638 48.634C71.9047 47.622 70.8105 47.0742 69.7851 47.393L70.3789 49.3028ZM68.3385 47.8828C67.3013 48.2627 66.7685 49.4114 67.1484 50.4486C67.5282 51.4858 68.677 52.0187 69.7142 51.6388L69.0264 49.7608L68.3385 47.8828ZM70.374 49.3047L70.9682 51.2145C71.0184 51.1988 71.068 51.1812 71.1168 51.1617L70.374 49.3047ZM73.1572 48.5889L73.7897 50.4863C74.7934 50.1517 75.3629 49.0933 75.0891 48.0714C74.8153 47.0494 73.7929 46.4175 72.7564 46.6295L73.1572 48.5889ZM70.9998 47.044C69.9324 47.3284 69.2977 48.4242 69.5821 49.4915C69.8664 50.5589 70.9622 51.1936 72.0295 50.9092L71.5146 48.9766L70.9998 47.044ZM73.1543 48.5899L73.5553 50.5493C73.6336 50.5333 73.7109 50.5125 73.7868 50.4873L73.1543 48.5899ZM76.0817 50.1566C77.18 50.0387 77.9747 49.0527 77.8567 47.9545C77.7388 46.8562 76.7529 46.0615 75.6546 46.1795L75.8682 48.168L76.0817 50.1566ZM74.5648 46.3162C73.4714 46.4729 72.7121 47.4864 72.8689 48.5798C73.0256 49.6731 74.039 50.4325 75.1324 50.2757L74.8486 48.296L74.5648 46.3162ZM85 42.0001V44.0001C99.9117 44.0001 112 56.0884 112 71.0001H114H116C116 53.8792 102.121 40.0001 85 40.0001V42.0001ZM114 71.0001L112 70.974L111.99 71.722L113.99 71.7481L115.99 71.7742L116 71.0262L114 71.0001ZM113.99 71.7481L111.991 71.6975C111.809 78.8738 108.83 85.3528 104.096 90.0881L105.511 91.502L106.925 92.9159C112.355 87.4839 115.781 80.0399 115.99 71.7987L113.99 71.7481ZM105.511 91.502L104.097 90.0878L98.0965 96.0878L99.5107 97.502L100.925 98.9162L106.925 92.9162L105.511 91.502ZM99.5107 97.502L98.0962 96.0881C97.1794 97.0053 96.1972 97.8571 95.1574 98.6349L96.3555 100.236L97.5535 101.838C98.7472 100.945 99.874 99.9676 100.925 98.9159L99.5107 97.502ZM96.3555 100.236L95.1574 98.6349C94.291 99.2831 93.384 99.8804 92.4413 100.423L93.4385 102.156L94.4357 103.89C95.5176 103.268 96.5587 102.582 97.5535 101.838L96.3555 100.236ZM93.4385 102.156L92.4413 100.423C92.0648 100.639 91.6819 100.847 91.2931 101.046L92.2051 102.826L93.117 104.606C93.5624 104.378 94.0021 104.139 94.4357 103.89L93.4385 102.156ZM92.2051 102.826L91.2931 101.046C90.3234 101.543 89.3194 101.983 88.2858 102.361L88.9736 104.239L89.6615 106.117C90.8488 105.682 92.0025 105.177 93.117 104.606L92.2051 102.826ZM88.9736 104.239L88.2858 102.361C87.4584 102.664 86.6126 102.928 85.7506 103.15L86.249 105.087L86.7475 107.024C87.7394 106.769 88.7115 106.465 89.6615 106.117L88.9736 104.239ZM86.249 105.087L85.7506 103.15C85.3187 103.261 84.8833 103.362 84.4447 103.452L84.8457 105.411L85.2467 107.371C85.7522 107.267 86.2526 107.151 86.7475 107.024L86.249 105.087ZM84.8457 105.411L84.4447 103.452C84.006 103.542 83.5629 103.621 83.1158 103.689L83.418 105.666L83.7202 107.643C84.2328 107.565 84.7418 107.474 85.2467 107.371L84.8457 105.411ZM83.418 105.666L83.1158 103.689C81.7753 103.894 80.4009 104 79 104V106V108C80.6032 108 82.1797 107.879 83.7202 107.643L83.418 105.666ZM79 106V104C64.0883 104 52 91.9117 52 77.0001H50H48C48 94.1209 61.8792 108 79 108V106ZM50 77.0001H52C52 72.5707 53.0649 68.3959 54.9511 64.7124L53.1709 63.8008L51.3907 62.8893C49.2223 67.124 48 71.9222 48 77.0001H50ZM53.1709 63.8008L54.9511 64.7124C55.0515 64.5163 55.1528 64.3236 55.2556 64.1342L53.498 63.1797L51.7405 62.2253C51.6201 62.4469 51.5037 62.6685 51.3907 62.8893L53.1709 63.8008ZM53.498 63.1797L55.2556 64.1342C56.5017 61.8397 58.0715 59.7451 59.9038 57.912L58.4893 56.4981L57.0747 55.0842C54.9732 57.1866 53.1716 59.5901 51.7405 62.2253L53.498 63.1797ZM58.4893 56.4981L59.9035 57.9123L65.9035 51.9123L64.4893 50.4981L63.075 49.0839L57.075 55.0839L58.4893 56.4981ZM64.4893 50.4981L65.9038 51.912C70.7923 47.0215 77.5415 44.0001 85 44.0001V42.0001V40.0001C76.4379 40.0001 68.6829 43.4737 63.0747 49.0842L64.4893 50.4981ZM67.7148 50.2774L66.936 48.4353C66.6985 48.5357 66.4657 48.6384 66.2383 48.7412L67.0625 50.5635L67.8867 52.3858C68.0916 52.2932 68.2934 52.2042 68.4937 52.1195L67.7148 50.2774ZM67.0625 50.5635L67.8867 52.3858C68.0874 52.295 68.2878 52.2071 68.4883 52.1223L67.709 50.2803L66.9297 48.4384C66.6963 48.5371 66.4659 48.6383 66.2383 48.7412L67.0625 50.5635ZM67.709 50.2803L68.6034 52.0692L68.6093 52.0663L67.7148 50.2774L66.8204 48.4885L66.8146 48.4915L67.709 50.2803ZM70.3789 49.3028L69.7851 47.393C69.2967 47.5448 68.8145 47.7085 68.3385 47.8828L69.0264 49.7608L69.7142 51.6388C70.13 51.4865 70.5495 51.3442 70.9727 51.2126L70.3789 49.3028ZM69.0264 49.7608L69.7142 51.6388C70.1274 51.4875 70.5455 51.346 70.9682 51.2145L70.374 49.3047L69.7799 47.395C69.2944 47.5461 68.8138 47.7087 68.3385 47.8828L69.0264 49.7608ZM70.374 49.3047L71.1168 51.1617L71.1217 51.1597L70.3789 49.3028L69.6361 47.4458L69.6312 47.4478L70.374 49.3047ZM73.1572 48.5889L72.7564 46.6295C72.1617 46.7512 71.5761 46.8905 70.9998 47.044L71.5146 48.9766L72.0295 50.9092C72.5363 50.7742 73.0457 50.6532 73.5581 50.5483L73.1572 48.5889ZM71.5146 48.9766L72.0295 50.9092C72.5345 50.7747 73.0431 50.6541 73.5553 50.5493L73.1543 48.5899L72.7533 46.6305C72.1605 46.7518 71.576 46.8905 70.9998 47.044L71.5146 48.9766ZM73.1543 48.5899L73.7868 50.4873L73.7897 50.4863L73.1572 48.5889L72.5248 46.6916L72.5218 46.6925L73.1543 48.5899ZM75.8682 48.168L75.6546 46.1795C75.2888 46.2187 74.9255 46.2645 74.5648 46.3162L74.8486 48.296L75.1324 50.2757C75.4478 50.2305 75.7642 50.1907 76.0817 50.1566L75.8682 48.168ZM74.8486 48.296L75.1324 50.2757C75.4478 50.2305 75.7642 50.1907 76.0817 50.1566L75.8682 48.168L75.6546 46.1795C75.2888 46.2187 74.9255 46.2645 74.5648 46.3162L74.8486 48.296Z" fill="var(--stroke-0, #252525)"/>
</g>
<circle id="Ellipse 256" cx="85" cy="71.0001" r="29" fill="var(--fill-0, #2ee8d5)" stroke="var(--stroke-0, #252525)" stroke-width="4"/>
</g>
</g>
</svg>
