<svg preserveAspectRatio="none" width="100%" height="100%" overflow="visible" style="display: block;" viewBox="0 0 144 200" fill="none" xmlns="http://www.w3.org/2000/svg" xmlns:xlink="http://www.w3.org/1999/xlink">
<g id="Group 1003">
<g id="Union">
<path d="M126 2C134.837 2 142 9.16344 142 18V172C142 176.417 140.21 180.416 137.316 183.312L127.316 193.312C124.421 196.208 120.419 198 116 198H18L17.5869 197.995C8.94127 197.776 2 190.698 2 182V28C2 25.0994 2.77162 22.379 4.12109 20.0332C4.44227 19.4749 4.79666 18.9381 5.18066 18.4248C5.64157 17.8087 6.14537 17.2265 6.68848 16.6836L16.6885 6.68359C19.5837 3.78959 23.583 2.00001 28 2H126Z" fill="var(--fill-0, white)"/>
<path d="M137.316 183.312L138.731 184.726L138.731 184.725L137.316 183.312ZM127.316 193.312L125.902 191.897L125.902 191.898L127.316 193.312ZM18 198L17.9764 200C17.9842 200 17.9921 200 18 200V198ZM17.5869 197.995L17.5362 199.994C17.5453 199.995 17.5543 199.995 17.5633 199.995L17.5869 197.995ZM4.12109 20.0332L5.85471 21.0305L5.85473 21.0305L4.12109 20.0332ZM5.18066 18.4248L3.57923 17.2267L3.57922 17.2267L5.18066 18.4248ZM6.68848 16.6836L8.1024 18.0981L8.10269 18.0978L6.68848 16.6836ZM16.6885 6.68359L15.2746 5.26908L15.2743 5.26938L16.6885 6.68359ZM28 2V0H28L28 2ZM126 2V4C133.732 4 140 10.268 140 18H142H144C144 8.05888 135.941 0 126 0V2ZM142 18H140V172H142H144V18H142ZM142 172H140C140 175.866 138.436 179.362 135.902 181.898L137.316 183.312L138.731 184.725C141.985 181.47 144 176.969 144 172H142ZM137.316 183.312L135.902 181.897L125.902 191.897L127.316 193.312L128.731 194.726L138.731 184.726L137.316 183.312ZM127.316 193.312L125.902 191.898C123.366 194.434 119.868 196 116 196V198V200C120.971 200 125.475 197.982 128.731 194.725L127.316 193.312ZM116 198V196H18V198V200H116V198ZM18 198L18.0236 196L17.6106 195.995L17.5869 197.995L17.5633 199.995L17.9764 200L18 198ZM17.5869 197.995L17.6376 195.996C10.0737 195.804 4 189.611 4 182H2H0C0 191.786 7.80883 199.748 17.5362 199.994L17.5869 197.995ZM2 182H4V28H2H0V182H2ZM2 28H4C4 25.4586 4.67517 23.0809 5.85471 21.0305L4.12109 20.0332L2.38748 19.0359C0.868077 21.6772 0 24.7403 0 28H2ZM4.12109 20.0332L5.85473 21.0305C6.13509 20.5431 6.44516 20.0733 6.78211 19.6229L5.18066 18.4248L3.57922 17.2267C3.14816 17.8029 2.74945 18.4067 2.38746 19.036L4.12109 20.0332ZM5.18066 18.4248L6.78209 19.6229C7.18634 19.0826 7.62759 18.5727 8.1024 18.0981L6.68848 16.6836L5.27456 15.2691C4.66315 15.8802 4.09679 16.5349 3.57923 17.2267L5.18066 18.4248ZM6.68848 16.6836L8.10269 18.0978L18.1027 8.09781L16.6885 6.68359L15.2743 5.26938L5.27426 15.2694L6.68848 16.6836ZM16.6885 6.68359L18.1024 8.09811C20.6378 5.56376 24.1344 4.00001 28 4L28 2L28 0C23.0315 1.62125e-05 18.5296 2.01542 15.2746 5.26908L16.6885 6.68359ZM28 2V4H126V2V0H28V2Z" fill="var(--stroke-0, #252525)"/>
</g>
<g id="Union_2">
<path d="M16.6836 6.6875C13.7897 9.58272 12 13.5821 12 17.999V171.999L2 181.999V27.999C2 23.5796 3.79171 19.5782 6.68848 16.6826L16.6836 6.6875Z" fill="var(--fill-0, white)"/>
<path d="M16.6836 6.6875C13.7897 9.58272 12 13.5821 12 17.999V171.999L2 181.999V27.999C2 23.5796 3.79171 19.5782 6.68848 16.6826L16.6836 6.6875Z" fill="url(#pattern0_2431_27798)"/>
<path d="M16.6836 6.6875L18.0981 8.10139C18.8789 7.32023 18.8787 6.05402 18.0976 5.27312C17.3166 4.49223 16.0504 4.4923 15.2694 5.27329L16.6836 6.6875ZM12 171.999L13.4142 173.413C13.7893 173.038 14 172.529 14 171.999H12ZM2 181.999H0C0 182.808 0.487284 183.537 1.23463 183.847C1.98198 184.156 2.84222 183.985 3.41421 183.413L2 181.999ZM6.68848 16.6826L8.10241 18.0971L8.10269 18.0968L6.68848 16.6826ZM16.6836 6.6875L15.2691 5.27361C12.0155 8.52861 10 13.0306 10 17.999H12H14C14 14.1335 15.5638 10.6368 18.0981 8.10139L16.6836 6.6875ZM12 17.999H10V171.999H12H14V17.999H12ZM12 171.999L10.5858 170.585L0.585786 180.585L2 181.999L3.41421 183.413L13.4142 173.413L12 171.999ZM2 181.999H4V27.999H2H0V181.999H2ZM2 27.999H4C4 24.1314 5.5656 20.6329 8.10241 18.0971L6.68848 16.6826L5.27455 15.2681C2.01781 18.5236 0 23.0278 0 27.999H2ZM6.68848 16.6826L8.10269 18.0968L18.0978 8.10171L16.6836 6.6875L15.2694 5.27329L5.27426 15.2684L6.68848 16.6826Z" fill="var(--stroke-0, #252525)"/>
</g>
<g id="Union_3">
<path d="M12 172C12 180.837 19.1634 188 28 188H125.999L126 187.999C130.417 187.999 134.416 186.209 137.312 183.315L127.316 193.311C124.421 196.207 120.42 197.998 116.001 197.998L116 198H18C9.16344 198 2 190.837 2 182L12 172Z" fill="var(--fill-0, #252525)"/>
<path d="M12 172H14C14 171.191 13.5127 170.462 12.7654 170.152C12.018 169.843 11.1578 170.014 10.5858 170.586L12 172ZM125.999 188V190C126.529 190 127.038 189.789 127.413 189.414L125.999 188ZM126 187.999V185.999C125.47 185.999 124.961 186.21 124.586 186.585L126 187.999ZM137.312 183.315L138.726 184.73C139.507 183.949 139.507 182.682 138.726 181.901C137.945 181.12 136.679 181.12 135.898 181.901L137.312 183.315ZM127.316 193.311L125.902 191.896L125.902 191.897L127.316 193.311ZM116.001 197.998L116.001 195.998C115.243 195.998 114.551 196.426 114.212 197.104L116.001 197.998ZM116 198V200C116.758 200 117.45 199.572 117.789 198.894L116 198ZM2 182L0.585786 180.586C0.210714 180.961 0 181.47 0 182H2ZM12 172H10C10 181.941 18.0589 190 28 190V188V186C20.268 186 14 179.732 14 172H12ZM28 188V190H125.999V188V186H28V188ZM125.999 188L127.413 189.414L127.414 189.413L126 187.999L124.586 186.585L124.585 186.586L125.999 188ZM126 187.999V189.999C130.969 189.999 135.47 187.984 138.725 184.73L137.312 183.315L135.898 181.901C133.362 184.435 129.866 185.999 126 185.999V187.999ZM137.312 183.315L135.897 181.901L125.902 191.896L127.316 193.311L128.731 194.725L138.726 184.73L137.312 183.315ZM127.316 193.311L125.902 191.897C123.367 194.433 119.869 195.998 116.001 195.998L116.001 197.998L116.001 199.998C120.972 199.998 125.475 197.981 128.731 194.724L127.316 193.311ZM116.001 197.998L114.212 197.104L114.211 197.106L116 198L117.789 198.894L117.79 198.892L116.001 197.998ZM116 198V196H18V198V200H116V198ZM18 198V196C10.268 196 4 189.732 4 182H2H0C0 191.941 8.05888 200 18 200V198ZM2 182L3.41421 183.414L13.4142 173.414L12 172L10.5858 170.586L0.585786 180.586L2 182Z" fill="var(--stroke-0, #252525)"/>
</g>
<g id="Rectangle 973">
<path d="M12 18C12 9.16344 19.1634 2 28 2H126C134.837 2 142 9.16344 142 18V172C142 180.837 134.837 188 126 188H28C19.1634 188 12 180.837 12 172V18Z" fill="var(--fill-0, #2ee8d5)"/>
<path d="M28 2V4H126V2V0H28V2ZM142 18H140V172H142H144V18H142ZM126 188V186H28V188V190H126V188ZM12 172H14V18H12H10V172H12ZM28 188V186C20.268 186 14 179.732 14 172H12H10C10 181.941 18.0589 190 28 190V188ZM142 172H140C140 179.732 133.732 186 126 186V188V190C135.941 190 144 181.941 144 172H142ZM126 2V4C133.732 4 140 10.268 140 18H142H144C144 8.05888 135.941 0 126 0V2ZM28 2V0C18.0589 0 10 8.05887 10 18H12H14C14 10.268 20.268 4 28 4V2Z" fill="var(--stroke-0, #252525)"/>
</g>
<g id="Group 1002">
<g id="Rectangle 972">
<path d="M54 40H100V94H54V40Z" fill="var(--fill-0, white)"/>
<path d="M54 40V38C52.8954 38 52 38.8954 52 40H54ZM100 40H102C102 38.8954 101.105 38 100 38V40ZM100 94V96C101.105 96 102 95.1046 102 94H100ZM54 94H52C52 95.1046 52.8954 96 54 96V94ZM54 40V42H100V40V38H54V40ZM100 40H98V94H100H102V40H100ZM100 94V92H54V94V96H100V94ZM54 94H56V40H54H52V94H54Z" fill="var(--stroke-0, #252525)"/>
</g>
<g id="Rectangle 968">
<path d="M54 48C54 43.5817 57.5817 40 62 40H92C96.4183 40 100 43.5817 100 48V94H54V48Z" fill="var(--fill-0, #FFE14D)"/>
<path d="M100 94V96C101.105 96 102 95.1046 102 94H100ZM54 94H52C52 95.1046 52.8954 96 54 96V94ZM62 40V42H92V40V38H62V40ZM100 48H98V94H100H102V48H100ZM100 94V92H54V94V96H100V94ZM54 94H56V48H54H52V94H54ZM92 40V42C95.3137 42 98 44.6863 98 48H100H102C102 42.4772 97.5228 38 92 38V40ZM62 40V38C56.4772 38 52 42.4772 52 48H54H56C56 44.6863 58.6863 42 62 42V40Z" fill="var(--stroke-0, #252525)"/>
</g>
<g id="Rectangle 970">
<path d="M64 140H110L100 150H54L64 140Z" fill="var(--fill-0, #FFE14D)"/>
<path d="M64 140H110L100 150H54L64 140Z" fill="url(#pattern1_2431_27798)"/>
<path d="M64 140H110L100 150H54L64 140Z" stroke="var(--stroke-0, #252525)" stroke-width="4" stroke-linejoin="round"/>
</g>
<path id="Polygon 11" d="M54 94L64.5 140L54 150V94Z" fill="var(--fill-0, #252525)" stroke="var(--stroke-0, #252525)" stroke-width="4" stroke-linejoin="round"/>
<path id="Rectangle 971" d="M54 94H100L110 140H64L54 94Z" fill="var(--fill-0, #FFE14D)" stroke="var(--stroke-0, #252525)" stroke-width="4" stroke-linejoin="round"/>
<path id="Rectangle 969" d="M54 94H100L107.891 130.301C108.975 135.287 105.177 140 100.074 140H70.4477C66.6843 140 63.4298 137.377 62.6303 133.699L54 94Z" fill="var(--fill-0, #FFE14D)" stroke="var(--stroke-0, #252525)" stroke-width="4" stroke-linejoin="round"/>
</g>
</g>
<defs>
<pattern id="pattern0_2431_27798" patternUnits="userSpaceOnUse" patternTransform="matrix(3.48 0 0 6.96 2 6.6875)" preserveAspectRatio="none" viewBox="0 0 3 6" width="1" height="1">
<use xlink:href="#pattern0_2431_27798_inner" transform="translate(-3 0)"/>
<g id="pattern0_2431_27798_inner">
<circle id="Ellipse 248" cx="1" cy="1" r="1" fill="var(--fill-0, #252525)"/>
</g>
<use xlink:href="#pattern0_2431_27798_inner" transform="translate(-1.5 3)"/>
<use xlink:href="#pattern0_2431_27798_inner" transform="translate(1.5 3)"/>
</pattern><pattern id="pattern1_2431_27798" patternUnits="userSpaceOnUse" patternTransform="matrix(6.96 0 0 3.48 54 140)" preserveAspectRatio="none" viewBox="0 0 6 3" width="1" height="1">
<use xlink:href="#pattern1_2431_27798_inner" transform="translate(0 -3)"/>
<use xlink:href="#pattern1_2431_27798_inner" transform="translate(3 -1.5)"/>
<g id="pattern1_2431_27798_inner">
<circle id="Ellipse 248" cx="1" cy="1" r="1" fill="var(--fill-0, #252525)"/>
</g>
<use xlink:href="#pattern1_2431_27798_inner" transform="translate(3 1.5)"/>
</pattern></defs>
</svg>
