<svg preserveAspectRatio="none" width="100%" height="100%" overflow="visible" style="display: block;" viewBox="0 0 22.232 31.7632" fill="none" xmlns="http://www.w3.org/2000/svg">
<path id="outline-69" d="M1.97471 31.7632H20.2572C21.6297 31.7632 22.232 31.161 22.232 29.7885V24.6806C22.232 23.3082 21.6297 22.7059 20.2572 22.7059H16.525V9.14291H20.2572C21.6297 9.14291 22.232 8.54063 22.232 7.1682V1.97471C22.232 0.602287 21.6297 0 20.2572 0H1.97471C0.602287 0 0 0.602287 0 1.97471V7.1682C0 8.54063 0.602287 9.14291 1.97471 9.14291H5.79578V22.7059H1.97471C0.602287 22.7059 0 23.3082 0 24.6806V29.7885C0 31.161 0.602287 31.7632 1.97471 31.7632Z" fill="var(--fill-0, black)"/>
</svg>
