<svg preserveAspectRatio="none" width="100%" height="100%" overflow="visible" style="display: block;" viewBox="0 0 68 68" fill="none" xmlns="http://www.w3.org/2000/svg">
<g id="Group 1016">
<g id="Union">
<path d="M37 2C53.0163 2 66 14.9837 66 31L65.9902 31.748C65.795 39.4568 62.5923 46.4183 57.5107 51.502L51.5107 57.502C50.5267 58.4864 49.4722 59.4009 48.3555 60.2363C47.4248 60.9325 46.4508 61.574 45.4385 62.1562C45.0334 62.3892 44.6221 62.6125 44.2051 62.8262C43.1629 63.3601 42.0841 63.8325 40.9736 64.2393C40.0849 64.5647 39.176 64.8484 38.249 65.0869C37.7856 65.2062 37.3178 65.3145 36.8457 65.4111C36.3739 65.5077 35.8978 65.5927 35.418 65.666C33.9775 65.8862 32.502 66 31 66C14.9837 66 2 53.0163 2 37C2 32.2464 3.14363 27.7599 5.1709 23.8008C5.27763 23.5923 5.38646 23.3852 5.49805 23.1797C6.83664 20.7149 8.52234 18.4658 10.4893 16.498L16.4893 10.498C21.7376 5.24755 28.9897 2.00001 37 2ZM19.7148 10.2773C19.4959 10.3699 19.2786 10.4657 19.0625 10.5635C19.2767 10.4666 19.4921 10.372 19.709 10.2803L19.7148 10.2773ZM22.3789 9.30273C21.9231 9.44446 21.4722 9.59744 21.0264 9.76074C21.4706 9.59804 21.9199 9.44597 22.374 9.30469L22.3789 9.30273ZM25.1572 8.58887C24.6037 8.7021 24.0562 8.83228 23.5146 8.97656C24.0552 8.83254 24.6018 8.70293 25.1543 8.58984L25.1572 8.58887ZM27.8682 8.16797C27.5265 8.20466 27.1866 8.24744 26.8486 8.2959C27.1866 8.24745 27.5265 8.20466 27.8682 8.16797Z" fill="var(--fill-0, #252525)"/>
<path d="M37 2V0V0V2ZM66 31L67.9998 31.0261C67.9999 31.0174 68 31.0087 68 31H66ZM65.9902 31.748L67.9896 31.7987C67.9898 31.7905 67.99 31.7823 67.9901 31.7742L65.9902 31.748ZM57.5107 51.502L58.925 52.9162L58.9253 52.9159L57.5107 51.502ZM51.5107 57.502L50.0965 56.0877L50.0962 56.088L51.5107 57.502ZM48.3555 60.2363L49.5535 61.8378L49.5535 61.8378L48.3555 60.2363ZM45.4385 62.1562L44.4413 60.4226L44.4413 60.4226L45.4385 62.1562ZM44.2051 62.8262L45.117 64.6062L45.117 64.6062L44.2051 62.8262ZM40.9736 64.2393L40.2858 62.3613V62.3613L40.9736 64.2393ZM38.249 65.0869L38.7475 67.0238H38.7475L38.249 65.0869ZM36.8457 65.4111L36.4447 63.4518V63.4518L36.8457 65.4111ZM35.418 65.666L35.7202 67.6431V67.6431L35.418 65.666ZM5.1709 23.8008L6.95109 24.7123L6.9511 24.7123L5.1709 23.8008ZM5.49805 23.1797L3.7405 22.2252L3.7405 22.2252L5.49805 23.1797ZM10.4893 16.498L9.07504 15.0838L9.07474 15.0841L10.4893 16.498ZM16.4893 10.498L17.9035 11.9123L17.9038 11.912L16.4893 10.498ZM19.7148 10.2773L20.6093 12.0662C21.5751 11.5833 21.9832 10.4209 21.5312 9.44026C21.0793 8.45958 19.9305 8.01472 18.936 8.43525L19.7148 10.2773ZM18.2383 8.74118C17.2319 9.19635 16.785 10.3812 17.2402 11.3876C17.6954 12.3941 18.8802 12.8409 19.8867 12.3858L19.0625 10.5635L18.2383 8.74118ZM19.709 10.2803L20.4883 12.1222C20.5272 12.1057 20.5656 12.088 20.6034 12.0691L19.709 10.2803ZM22.3789 9.30273L23.1217 11.1597C24.1187 10.7609 24.6229 9.64591 24.2638 8.63392C23.9047 7.62192 22.8105 7.0741 21.7851 7.39292L22.3789 9.30273ZM20.3385 7.88274C19.3013 8.26262 18.7685 9.41138 19.1484 10.4486C19.5282 11.4858 20.677 12.0186 21.7142 11.6387L21.0264 9.76074L20.3385 7.88274ZM22.374 9.30469L22.9682 11.2144C23.0184 11.1988 23.068 11.1812 23.1168 11.1616L22.374 9.30469ZM25.1572 8.58887L25.7897 10.4862C26.7934 10.1517 27.3629 9.09326 27.0891 8.07129C26.8153 7.04933 25.7929 6.4174 24.7564 6.62945L25.1572 8.58887ZM22.9998 7.04398C21.9324 7.32835 21.2977 8.42412 21.5821 9.49146C21.8664 10.5588 22.9622 11.1935 24.0295 10.9091L23.5146 8.97656L22.9998 7.04398ZM25.1543 8.58984L25.5553 10.5492C25.6336 10.5332 25.7109 10.5125 25.7868 10.4872L25.1543 8.58984ZM28.0817 10.1565C29.18 10.0386 29.9747 9.05268 29.8567 7.95443C29.7388 6.85617 28.7529 6.06147 27.6546 6.1794L27.8682 8.16797L28.0817 10.1565ZM26.5648 6.31614C25.4714 6.47287 24.7121 7.4863 24.8689 8.57969C25.0256 9.67309 26.039 10.4324 27.1324 10.2757L26.8486 8.2959L26.5648 6.31614ZM37 2V4C51.9117 4 64 16.0883 64 31H66H68C68 13.8792 54.1208 0 37 0V2ZM66 31L64.0002 30.9739L63.9904 31.7219L65.9902 31.748L67.9901 31.7742L67.9998 31.0261L66 31ZM65.9902 31.748L63.9909 31.6974C63.8092 38.8737 60.8295 45.3527 56.0962 50.088L57.5107 51.502L58.9253 52.9159C64.355 47.4838 67.7809 40.0399 67.9896 31.7987L65.9902 31.748ZM57.5107 51.502L56.0965 50.0877L50.0965 56.0877L51.5107 57.502L52.925 58.9162L58.925 52.9162L57.5107 51.502ZM51.5107 57.502L50.0962 56.088C49.1794 57.0053 48.1972 57.857 47.1574 58.6349L48.3555 60.2363L49.5535 61.8378C50.7472 60.9448 51.874 59.9676 52.9253 58.9159L51.5107 57.502ZM48.3555 60.2363L47.1574 58.6349C46.291 59.2831 45.384 59.8804 44.4413 60.4226L45.4385 62.1562L46.4357 63.8899C47.5176 63.2676 48.5587 62.582 49.5535 61.8378L48.3555 60.2363ZM45.4385 62.1562L44.4413 60.4226C44.0648 60.6391 43.6819 60.847 43.2931 61.0462L44.2051 62.8262L45.117 64.6062C45.5624 64.378 46.0021 64.1393 46.4357 63.8899L45.4385 62.1562ZM44.2051 62.8262L43.2931 61.0462C42.3234 61.543 41.3194 61.9827 40.2858 62.3613L40.9736 64.2393L41.6615 66.1173C42.8488 65.6824 44.0025 65.1772 45.117 64.6062L44.2051 62.8262ZM40.9736 64.2393L40.2858 62.3613C39.4584 62.6643 38.6126 62.9282 37.7506 63.15L38.249 65.0869L38.7475 67.0238C39.7394 66.7685 40.7115 66.4652 41.6615 66.1173L40.9736 64.2393ZM38.249 65.0869L37.7506 63.15C37.3187 63.2612 36.8833 63.362 36.4447 63.4518L36.8457 65.4111L37.2467 67.3705C37.7522 67.2671 38.2526 67.1512 38.7475 67.0238L38.249 65.0869ZM36.8457 65.4111L36.4447 63.4518C36.006 63.5415 35.5629 63.6206 35.1158 63.689L35.418 65.666L35.7202 67.6431C36.2328 67.5647 36.7418 67.4739 37.2467 67.3705L36.8457 65.4111ZM35.418 65.666L35.1158 63.689C33.7753 63.8939 32.4009 64 31 64V66V68C32.6032 68 34.1797 67.8785 35.7202 67.6431L35.418 65.666ZM31 66V64C16.0883 64 4 51.9117 4 37H2H0C0 54.1208 13.8792 68 31 68V66ZM2 37H4C4 32.5707 5.06494 28.3959 6.95109 24.7123L5.1709 23.8008L3.3907 22.8892C1.22232 27.124 0 31.9222 0 37H2ZM5.1709 23.8008L6.9511 24.7123C7.05152 24.5162 7.15277 24.3235 7.2556 24.1342L5.49805 23.1797L3.7405 22.2252C3.62014 22.4468 3.50374 22.6685 3.3907 22.8892L5.1709 23.8008ZM5.49805 23.1797L7.25559 24.1342C8.50168 21.8397 10.0715 19.7451 11.9038 17.912L10.4893 16.498L9.07474 15.0841C6.97323 17.1865 5.17159 19.5901 3.7405 22.2252L5.49805 23.1797ZM10.4893 16.498L11.9035 17.9123L17.9035 11.9123L16.4893 10.498L15.075 9.08383L9.07504 15.0838L10.4893 16.498ZM16.4893 10.498L17.9038 11.912C22.7923 7.02142 29.5415 4.00001 37 4V2V0C28.4379 7.7486e-06 20.6829 3.47369 15.0747 9.08413L16.4893 10.498ZM19.7148 10.2773L18.936 8.43525C18.6985 8.53566 18.4657 8.63834 18.2383 8.74118L19.0625 10.5635L19.8867 12.3858C20.0916 12.2931 20.2934 12.2042 20.4937 12.1194L19.7148 10.2773ZM19.0625 10.5635L19.8867 12.3858C20.0874 12.295 20.2878 12.207 20.4883 12.1222L19.709 10.2803L18.9297 8.43835C18.6963 8.53708 18.4659 8.63827 18.2383 8.74118L19.0625 10.5635ZM19.709 10.2803L20.6034 12.0691L20.6093 12.0662L19.7148 10.2773L18.8204 8.48849L18.8146 8.49142L19.709 10.2803ZM22.3789 9.30273L21.7851 7.39292C21.2967 7.54478 20.8145 7.70843 20.3385 7.88274L21.0264 9.76074L21.7142 11.6387C22.13 11.4865 22.5495 11.3441 22.9727 11.2125L22.3789 9.30273ZM21.0264 9.76074L21.7142 11.6387C22.1274 11.4874 22.5455 11.3459 22.9682 11.2144L22.374 9.30469L21.7799 7.39498C21.2944 7.54603 20.8138 7.70867 20.3385 7.88274L21.0264 9.76074ZM22.374 9.30469L23.1168 11.1616L23.1217 11.1597L22.3789 9.30273L21.6361 7.44578L21.6312 7.44773L22.374 9.30469ZM25.1572 8.58887L24.7564 6.62945C24.1617 6.7511 23.5761 6.89042 22.9998 7.04398L23.5146 8.97656L24.0295 10.9091C24.5363 10.7741 25.0457 10.6531 25.5581 10.5483L25.1572 8.58887ZM23.5146 8.97656L24.0295 10.9091C24.5345 10.7746 25.0431 10.6541 25.5553 10.5492L25.1543 8.58984L24.7533 6.63046C24.1605 6.75179 23.576 6.89046 22.9998 7.04398L23.5146 8.97656ZM25.1543 8.58984L25.7868 10.4872L25.7897 10.4862L25.1572 8.58887L24.5248 6.6915L24.5218 6.69248L25.1543 8.58984ZM27.8682 8.16797L27.6546 6.1794C27.2888 6.21868 26.9255 6.26443 26.5648 6.31614L26.8486 8.2959L27.1324 10.2757C27.4478 10.2305 27.7642 10.1906 28.0817 10.1565L27.8682 8.16797ZM26.8486 8.2959L27.1324 10.2757C27.4478 10.2305 27.7642 10.1906 28.0817 10.1565L27.8682 8.16797L27.6546 6.1794C27.2888 6.21868 26.9255 6.26443 26.5648 6.31614L26.8486 8.2959Z" fill="var(--stroke-0, #252525)"/>
</g>
<circle id="Ellipse 256" cx="37" cy="31" r="29" fill="var(--fill-0, #2ee8d5)" stroke="var(--stroke-0, #252525)" stroke-width="4"/>
</g>
</svg>
