<svg preserveAspectRatio="none" width="100%" height="100%" overflow="visible" style="display: block;" viewBox="0 0 27.9356 31.7599" fill="none" xmlns="http://www.w3.org/2000/svg">
<path id="outline-72" d="M13.3458 8.58341C14.5471 8.58341 14.8038 9.27127 14.8038 10.1698V11.6278C14.8038 12.5295 14.5471 13.2141 13.3458 13.2141H10.5548V8.58011H13.3458V8.58341ZM8.58012 31.7566C9.95255 31.7566 10.5548 31.1544 10.5548 29.7819V21.8008H16.1334C17.0352 21.8008 17.3347 22.2714 17.3347 23.216V29.7819C17.3347 31.1544 17.937 31.7566 19.3094 31.7566H25.9609C27.3333 31.7566 27.9356 31.1544 27.9356 29.7819V20.6851C27.9356 17.2952 26.1748 15.021 23.4727 14.2475C24.674 13.2602 25.148 11.6738 25.148 9.57076V7.59605C25.148 3.1332 23.0877 0 16.2651 0H1.97471C0.602287 0 0 0.602287 0 1.97471V29.7852C0 31.1577 0.602287 31.7599 1.97471 31.7599H8.58342L8.58012 31.7566Z" fill="var(--fill-0, black)"/>
</svg>
