<svg preserveAspectRatio="none" width="100%" height="100%" overflow="visible" style="display: block;" viewBox="0 0 35.7225 40.0142" fill="none" xmlns="http://www.w3.org/2000/svg">
<g id="shade-54">
<path id="Vector" d="M11.6146 39.1157C9.73862 39.1157 8.74797 38.1251 8.74797 36.2491V16.502H3.76183C1.88585 16.502 0.895203 15.5114 0.895203 13.6354V8.4419C0.895203 7.46442 1.19141 6.7239 1.79699 6.18744L7.34922 1.4942C7.80998 1.09926 8.46822 0.895203 9.30089 0.895203H31.9607C33.8367 0.895203 34.8273 1.88586 34.8273 3.76183V8.95532C34.8273 9.9361 34.5311 10.6733 33.9255 11.2131L28.3503 15.8438C28.0113 16.1663 27.5341 16.3802 26.9746 16.4625V31.5724C26.9746 32.5498 26.6784 33.2903 26.0728 33.8268L20.4975 38.4608C20.0499 38.8854 19.3686 39.119 18.5689 39.119H11.6179L11.6146 39.1157Z" fill="var(--fill-0, black)"/>
<path id="Vector_2" d="M31.9574 1.78712C33.3298 1.78712 33.9321 2.38941 33.9321 3.76183V8.95532C33.9321 9.72875 33.7182 10.1994 33.3298 10.5417L27.7513 15.1757C27.4946 15.4324 27.0206 15.6035 26.4216 15.6035H26.0794V31.5691C26.0794 32.3425 25.8654 32.8131 25.4771 33.1554L19.8985 37.7894C19.6418 38.0461 19.1679 38.2173 18.5689 38.2173H11.6179C10.2455 38.2173 9.64318 37.615 9.64318 36.2425V15.6002H3.76512C2.39269 15.6002 1.79041 14.9979 1.79041 13.6255V8.43203C1.79041 7.6586 2.00433 7.18796 2.39269 6.84567L7.92847 2.1689C8.22797 1.91219 8.7019 1.78383 9.30089 1.78383H31.9607M31.9574 0H9.2976C8.24771 0 7.392 0.273172 6.7601 0.816218L1.23419 5.48641L1.21774 5.49958L1.20128 5.51603C0.404816 6.22364 0 7.2077 0 8.4419V13.6354C0 15.9919 1.40534 17.3972 3.76183 17.3972H7.85277V36.2524C7.85277 38.6089 9.25811 40.0142 11.6146 40.0142H18.5656C19.5826 40.0142 20.4712 39.7016 21.0866 39.1322L26.6191 34.5377L26.6421 34.518L26.6652 34.4982C27.4617 33.7906 27.8665 32.8065 27.8665 31.5724V17.157C28.2779 17.0088 28.6432 16.7916 28.9427 16.5152L34.4752 11.9207L34.4982 11.9009L34.5212 11.8812C35.3177 11.1736 35.7225 10.1895 35.7225 8.95532V3.76183C35.7225 1.40534 34.3172 0 31.9607 0H31.9574Z" fill="var(--fill-0, black)"/>
</g>
</svg>
