<svg preserveAspectRatio="none" width="100%" height="100%" overflow="visible" style="display: block;" viewBox="0 0 36.621 41.3011" fill="none" xmlns="http://www.w3.org/2000/svg">
<g id="shade-6f">
<path id="Vector" d="M15.5673 40.4092C5.83198 40.4092 0.898487 36.5848 0.898487 29.0447V15.699C0.898487 12.4637 1.84635 10.0941 3.79144 8.44848L9.37659 3.8079C11.7067 1.82332 15.4357 0.898497 21.1064 0.898497C31.3584 0.898497 35.7324 3.92639 35.7324 11.0189V25.6515C35.7324 28.9032 34.8142 31.1906 32.8394 32.8592L27.3004 37.4965C24.9669 39.4811 21.238 40.4092 15.5673 40.4092Z" fill="var(--fill-0, black)"/>
<path id="Vector_2" d="M21.1031 1.79041C32.3458 1.79041 34.8372 5.61148 34.8372 11.0189V25.6548C34.8372 28.3141 34.1921 30.5488 32.2635 32.1779L26.7277 36.8119C24.7102 38.5299 21.2775 39.5173 15.5706 39.5173C4.32791 39.5173 1.79369 34.4521 1.79369 29.0447V15.699C1.79369 13.0397 2.43877 10.7622 4.3674 9.13304L9.94595 4.49906C11.9635 2.78106 15.3534 1.7937 21.1031 1.7937M18.7433 25.3948V17.2392C18.7433 16.6797 18.5722 16.2519 17.9271 15.9952V24.1079C17.9271 24.6674 18.0982 25.0953 18.7433 25.3948ZM21.1031 0.0032944C15.2152 0.0032944 11.3052 0.997229 8.79405 3.12663L3.22206 7.75403C1.04988 9.58722 0 12.1807 0 15.6957V29.0414C0 32.6815 1.08609 35.5613 3.22536 37.5985C5.83856 40.0899 9.87684 41.3011 15.564 41.3011C21.2512 41.3011 25.3717 40.3072 27.8796 38.1712L33.4055 33.5471C35.5711 31.7172 36.621 29.1369 36.621 25.6515V11.0156C36.621 3.3965 31.8356 0 21.0998 0L21.1031 0.0032944Z" fill="var(--fill-0, black)"/>
</g>
</svg>
