<svg preserveAspectRatio="none" width="100%" height="100%" overflow="visible" style="display: block;" viewBox="0 0 32.9744 40.0208" fill="none" xmlns="http://www.w3.org/2000/svg">
<g id="shade-65">
<path id="Vector" d="M3.76182 39.1223C1.88585 39.1223 0.895203 38.1317 0.895203 36.2557V8.44518C0.895203 7.46441 1.19141 6.72718 1.79698 6.18743L7.34921 1.4942C7.80998 1.09926 8.46822 0.895203 9.30089 0.895203H29.2126C31.0885 0.895203 32.0792 1.88585 32.0792 3.76182V8.78418C32.0792 9.76495 31.783 10.5022 31.1774 11.0419L28.212 13.4906C28.472 13.9382 28.6037 14.501 28.6037 15.1789V19.7702C28.6037 20.7509 28.3075 21.4881 27.7019 22.0279L25.7371 23.6834H29.2126C31.0885 23.6834 32.0792 24.674 32.0792 26.5533V31.5756C32.0792 32.5564 31.783 33.2936 31.1774 33.8334L25.6021 38.4674C25.1545 38.8919 24.4733 39.1256 23.6735 39.1256H3.76182V39.1223Z" fill="var(--fill-0, black)"/>
<path id="Vector_2" d="M29.2093 1.7937C30.5817 1.7937 31.184 2.39599 31.184 3.76841V8.79075C31.184 9.56418 30.9701 10.0348 30.5817 10.3771L26.8923 13.4247C27.4518 13.7242 27.7085 14.2838 27.7085 15.1855V19.7767C27.7085 20.5502 27.4946 21.0208 27.1062 21.3631L23.2851 24.5819H29.206C30.5784 24.5819 31.1807 25.1842 31.1807 26.5566V31.5789C31.1807 32.3524 30.9668 32.823 30.5784 33.1653L24.9999 37.7993C24.7431 38.056 24.2692 38.2271 23.6702 38.2271H3.75853C2.3861 38.2271 1.78382 37.6248 1.78382 36.2524V8.44189C1.78382 7.66846 1.99775 7.19783 2.38611 6.85555L7.92189 2.17876C8.22138 1.92205 8.69531 1.7937 9.29431 1.7937H29.206M29.2093 0.00657876H9.2976C8.24771 0.00657876 7.39201 0.279751 6.7601 0.822796L1.23419 5.49299L1.21774 5.50616L1.20128 5.52261C0.404814 6.23021 0 7.21428 0 8.44848V36.259C0 38.6155 1.40533 40.0208 3.76182 40.0208H23.6735C24.6905 40.0208 25.5791 39.7082 26.1946 39.1388L31.727 34.5443L31.7501 34.5245L31.7731 34.5048C32.5696 33.7972 32.9744 32.8131 32.9744 31.5789V26.5566C32.9744 24.2001 31.5691 22.7948 29.2126 22.7948H28.1857L28.2614 22.7322L28.2779 22.7158L28.2943 22.6993C29.0908 21.9917 29.4956 21.0076 29.4956 19.7734V15.1822C29.4956 14.6293 29.4199 14.1587 29.2948 13.7572L31.7205 11.7528L31.7468 11.7331L31.7698 11.71C32.5663 11.0024 32.9711 10.0184 32.9711 8.78418V3.76182C32.9711 1.40533 31.5658 0 29.2093 0V0.00657876Z" fill="var(--fill-0, black)"/>
</g>
</svg>
