<svg preserveAspectRatio="none" width="100%" height="100%" overflow="visible" style="display: block;" viewBox="0 0 6.22363 8.56038" fill="none" xmlns="http://www.w3.org/2000/svg">
<path id="Vector" d="M1.26711 8.2181C0.747101 7.9943 0.322536 7.67833 0 7.27681L1.03014 6.13807C1.32306 6.46061 1.64889 6.70414 2.00763 6.86541C2.36636 7.02668 2.73498 7.10897 3.11675 7.10897C3.53473 7.10897 3.85728 7.01351 4.08108 6.82592C4.30488 6.63832 4.42007 6.36516 4.42007 6.00971C4.42007 5.71679 4.33449 5.49628 4.16664 5.34488C3.9955 5.19349 3.70917 5.08818 3.30765 5.02565L2.44206 4.88413C1.73117 4.76565 1.20128 4.49906 0.85571 4.08437C0.510136 3.66968 0.335707 3.14638 0.335707 2.51447C0.335707 1.72459 0.595713 1.10914 1.11901 0.664826C1.63902 0.223807 2.36966 0 3.31094 0C3.92639 0 4.47602 0.095446 4.95654 0.289626C5.43705 0.483806 5.8287 0.753694 6.1282 1.10256L5.12109 2.22814C4.90058 1.97472 4.634 1.78053 4.32792 1.64889C4.02184 1.51724 3.68285 1.44813 3.32082 1.44813C2.92587 1.44813 2.62637 1.53041 2.42561 1.69826C2.22485 1.86282 2.12282 2.10965 2.12282 2.43219C2.12282 2.70865 2.21168 2.91928 2.38283 3.06739C2.55397 3.21549 2.85017 3.32081 3.25828 3.39321L4.12387 3.54791C4.79527 3.66639 5.31197 3.92309 5.6773 4.31803C6.04262 4.71298 6.22363 5.2297 6.22363 5.87148C6.22363 6.39149 6.10187 6.85554 5.86161 7.26365C5.62135 7.67176 5.26262 7.98772 4.7821 8.2181C4.30488 8.44848 3.72892 8.56038 3.05751 8.56038C2.38611 8.56038 1.79041 8.44847 1.26711 8.22138V8.2181Z" fill="var(--fill-0, black)"/>
</svg>
