<svg preserveAspectRatio="none" width="100%" height="100%" overflow="visible" style="display: block;" viewBox="0 0 21.3697 30.8944" fill="none" xmlns="http://www.w3.org/2000/svg">
<path id="regular-69" d="M1.54357 30.8944H19.8261C20.899 30.8944 21.3697 30.4237 21.3697 29.3508V24.2429C21.3697 23.1699 20.899 22.6993 19.8261 22.6993H15.6628V8.28062H19.8261C20.899 8.28062 21.3697 7.80998 21.3697 6.73706V1.54357C21.3697 0.47064 20.899 0 19.8261 0H1.54357C0.47064 0 0 0.47064 0 1.54357V6.73706C0 7.80998 0.47064 8.28062 1.54357 8.28062H5.79249V22.6993H1.54357C0.47064 22.6993 0 23.1699 0 24.2429V29.3508C0 30.4237 0.47064 30.8944 1.54357 30.8944Z" fill="var(--fill-0, #1FDEE4)"/>
</svg>
