<svg preserveAspectRatio="none" width="100%" height="100%" overflow="visible" style="display: block;" viewBox="0 0 6.13148 8.41556" fill="none" xmlns="http://www.w3.org/2000/svg">
<path id="Vector" d="M6.12819 8.41556H0.181011V6.79301L2.78763 4.62411C3.24511 4.22917 3.57094 3.89019 3.76512 3.60385C3.9593 3.31752 4.05474 3.0246 4.05474 2.71523V2.59675C4.05474 2.25776 3.95272 1.99775 3.74537 1.81345C3.54132 1.63243 3.26485 1.54027 2.91599 1.54027C2.54408 1.54027 2.25117 1.6456 2.03395 1.85953C1.81673 2.07346 1.65547 2.35321 1.55344 2.70207L0 2.10966C0.197471 1.48434 0.55621 0.977492 1.07951 0.585841C1.59952 0.19419 2.27092 0 3.09371 0C3.68613 0 4.19626 0.105328 4.62741 0.319255C5.05855 0.533183 5.38438 0.826096 5.61147 1.20129C5.83527 1.57649 5.95046 2.00433 5.95046 2.48814C5.95046 2.92257 5.85502 3.32081 5.66742 3.68613C5.47653 4.04816 5.22969 4.38386 4.92032 4.68665C4.61095 4.98943 4.21272 5.32843 3.72562 5.70034L2.14914 6.92137H6.13148V8.41556H6.12819Z" fill="var(--fill-0, black)"/>
</svg>
