<svg preserveAspectRatio="none" width="100%" height="100%" overflow="visible" style="display: block;" viewBox="0 0 27.0799 30.9009" fill="none" xmlns="http://www.w3.org/2000/svg">
<path id="regular-72" d="M9.70241 7.72441H12.9212C14.422 7.72441 14.8103 8.58341 14.8103 9.74191V11.1999C14.8103 12.3584 14.4253 13.2174 12.9212 13.2174H9.70241V7.72441ZM8.15555 30.9009C9.22847 30.9009 9.69911 30.4303 9.69911 29.3574V20.9451H15.7088C16.9101 20.9451 17.3413 21.5046 17.3413 22.7915V29.3574C17.3413 30.4303 17.8119 30.9009 18.8848 30.9009H25.5363C26.6092 30.9009 27.0799 30.4303 27.0799 29.3574V20.2605C27.0799 16.6567 25.0196 14.3825 21.8864 14.0369C23.69 13.2635 24.2889 11.5488 24.2889 9.14291V7.1682C24.2889 2.91928 22.2714 0 15.8339 0H1.54357C0.47064 0 0 0.47064 0 1.54357V29.3541C0 30.427 0.47064 30.8977 1.54357 30.8977H8.15225L8.15555 30.9009Z" fill="var(--fill-0, #1FDEE4)"/>
</svg>
