<svg preserveAspectRatio="none" width="100%" height="100%" overflow="visible" style="display: block;" viewBox="0 0 26.4776 30.8977" fill="none" xmlns="http://www.w3.org/2000/svg">
<path id="regular-6b" d="M8.20164 30.8944C9.27457 30.8944 9.74521 30.4237 9.74521 29.3508V19.5233H15.4093C16.3111 19.5233 16.7818 20.0367 16.7818 20.9813V29.3508C16.7818 30.4237 17.2524 30.8944 18.3253 30.8944H24.934C26.007 30.8944 26.4776 30.4237 26.4776 29.3508V17.2491C26.4776 13.8164 24.4173 11.585 21.1985 11.4138L25.5758 1.41522C25.9609 0.513431 25.6186 0 24.6312 0H18.0225C16.9068 0 16.3045 0.385075 15.8767 1.41522L11.4566 11.4138H9.73862V1.54357C9.73862 0.47064 9.26798 0 8.19505 0H1.54357C0.47064 0 0 0.47064 0 1.54357V29.3541C0 30.427 0.47064 30.8977 1.54357 30.8977H8.19505L8.20164 30.8944Z" fill="var(--fill-0, #1FDEE4)"/>
</svg>
