<svg preserveAspectRatio="none" width="100%" height="100%" overflow="visible" style="display: block;" viewBox="0 0 22.9988 30.8977" fill="none" xmlns="http://www.w3.org/2000/svg">
<path id="regular-65" d="M21.4552 30.8911C22.5282 30.8911 22.9988 30.4204 22.9988 29.3475V24.3252C22.9988 23.2522 22.5282 22.7816 21.4552 22.7816H9.61027V19.0922H17.9797C19.0527 19.0922 19.5233 18.6215 19.5233 17.5486V12.9574C19.5233 11.8845 19.0527 11.4138 17.9797 11.4138H9.61027V8.10949H21.4552C22.5282 8.10949 22.9988 7.63885 22.9988 6.56592V1.54357C22.9988 0.47064 22.5282 0 21.4552 0H1.54357C0.47064 0 0 0.47064 0 1.54357V29.3541C0 30.427 0.47064 30.8977 1.54357 30.8977H21.4552V30.8911Z" fill="var(--fill-0, #1FDEE4)"/>
</svg>
