<svg preserveAspectRatio="none" width="100%" height="100%" overflow="visible" style="display: block;" viewBox="0 0 32.9744 40.0208" fill="none" xmlns="http://www.w3.org/2000/svg">
<g id="shade-65-2">
<path id="Vector" d="M3.76183 39.1289C1.88585 39.1289 0.895203 38.1383 0.895203 36.2623V8.45177C0.895203 7.471 1.19141 6.73377 1.79699 6.19401L7.34922 1.50078C7.80998 1.10584 8.46822 0.905076 9.30089 0.905076H29.2126C31.0885 0.905076 32.0792 1.89573 32.0792 3.77171V8.79405C32.0792 9.77482 31.783 10.5121 31.1774 11.0518L28.212 13.5005C28.472 13.9481 28.6037 14.5108 28.6037 15.1888V19.78C28.6037 20.7575 28.3075 21.498 27.7019 22.0378L25.7371 23.6933H29.2126C31.0885 23.6933 32.0792 24.6839 32.0792 26.5599V31.5822C32.0792 32.563 31.783 33.3002 31.1774 33.84L25.6021 38.4707C25.1545 38.8952 24.4733 39.1289 23.6735 39.1289H3.76183Z" fill="var(--fill-0, black)"/>
<path id="Vector_2" d="M29.2093 1.80028C30.5817 1.80028 31.184 2.40257 31.184 3.77499V8.79734C31.184 9.57077 30.9701 10.0414 30.5817 10.3837L26.8923 13.4313C27.4518 13.7308 27.7085 14.2903 27.7085 15.1921V19.7833C27.7085 20.5568 27.4946 21.0274 27.1062 21.3697L23.2851 24.5885H29.206C30.5784 24.5885 31.1807 25.1907 31.1807 26.5632V31.5855C31.1807 32.3589 30.9668 32.8296 30.5784 33.1719L24.9998 37.8059C24.7431 38.0626 24.2692 38.2337 23.6702 38.2337H3.75854C2.38611 38.2337 1.78383 37.6314 1.78383 36.259V8.44848C1.78383 7.67505 1.99775 7.20441 2.38611 6.86212L7.92189 2.18535C8.22138 1.92864 8.69531 1.80028 9.29431 1.80028H29.206M29.2093 0.00987316H9.2976C8.24771 0.00987316 7.39201 0.283045 6.7601 0.826091L1.23419 5.49628L1.21774 5.50945L1.20129 5.52261C0.404819 6.23021 0 7.21428 0 8.44848V36.259C0 38.6155 1.40534 40.0208 3.76183 40.0208H23.6735C24.6905 40.0208 25.5791 39.7082 26.1945 39.1388L31.727 34.5443L31.7501 34.5245L31.7731 34.5048C32.5696 33.7972 32.9744 32.8131 32.9744 31.5789V26.5566C32.9744 24.2001 31.5691 22.7948 29.2126 22.7948H28.1857L28.2614 22.7322L28.2779 22.7158L28.2943 22.6993C29.0908 21.9917 29.4956 21.0076 29.4956 19.7734V15.1822C29.4956 14.6293 29.4199 14.1587 29.2948 13.7572L31.7205 11.7528L31.7468 11.7331L31.7698 11.71C32.5663 11.0024 32.9711 10.0184 32.9711 8.78418V3.76183C32.9711 1.40534 31.5658 0 29.2093 0V0.00987316Z" fill="var(--fill-0, black)"/>
</g>
</svg>
