<svg preserveAspectRatio="none" width="100%" height="100%" overflow="visible" style="display: block;" viewBox="0 0 46 46" fill="none" xmlns="http://www.w3.org/2000/svg" xmlns:xlink="http://www.w3.org/1999/xlink">
<g id="Group 984">
<g id="Union">
<path d="M27 2C36.3888 2 44 9.61116 44 19C44 23.6931 42.0983 27.9424 39.0234 31.0186L31.0234 39.0186C27.9469 42.0964 23.6957 44 19 44C9.61116 44 2 36.3888 2 27C2 22.3069 3.90165 18.0576 6.97656 14.9814L14.9766 6.98145C18.0531 3.90364 22.3044 2 27 2ZM12.3848 11.335C12.1409 11.4381 11.9 11.5471 11.6621 11.6611C11.8987 11.5477 12.1383 11.4395 12.3809 11.3369L12.3848 11.335ZM13.9463 10.7637C14.0784 10.7226 14.2113 10.6834 14.3447 10.6455L14.3467 10.6445C14.2125 10.6826 14.0791 10.7224 13.9463 10.7637ZM15.8916 10.2842C15.7072 10.3182 15.524 10.3555 15.3418 10.3955C15.524 10.3555 15.7072 10.3182 15.8916 10.2842ZM16.7656 10.1455C16.5336 10.176 16.3032 10.2113 16.0742 10.251C16.3032 10.2113 16.5336 10.176 16.7656 10.1455Z" fill="var(--fill-0, white)"/>
<path d="M27 2C36.3888 2 44 9.61116 44 19C44 23.6931 42.0983 27.9424 39.0234 31.0186L31.0234 39.0186C27.9469 42.0964 23.6957 44 19 44C9.61116 44 2 36.3888 2 27C2 22.3069 3.90165 18.0576 6.97656 14.9814L14.9766 6.98145C18.0531 3.90364 22.3044 2 27 2ZM12.3848 11.335C12.1409 11.4381 11.9 11.5471 11.6621 11.6611C11.8987 11.5477 12.1383 11.4395 12.3809 11.3369L12.3848 11.335ZM13.9463 10.7637C14.0784 10.7226 14.2113 10.6834 14.3447 10.6455L14.3467 10.6445C14.2125 10.6826 14.0791 10.7224 13.9463 10.7637ZM15.8916 10.2842C15.7072 10.3182 15.524 10.3555 15.3418 10.3955C15.524 10.3555 15.7072 10.3182 15.8916 10.2842ZM16.7656 10.1455C16.5336 10.176 16.3032 10.2113 16.0742 10.251C16.3032 10.2113 16.5336 10.176 16.7656 10.1455Z" fill="url(#pattern0_2431_27710)"/>
<path d="M39.0234 31.0186L40.4377 32.4328L40.4379 32.4325L39.0234 31.0186ZM31.0234 39.0186L29.6092 37.6043L29.6089 37.6046L31.0234 39.0186ZM6.97656 14.9814L5.56235 13.5672L5.56205 13.5675L6.97656 14.9814ZM14.9766 6.98145L16.3908 8.39566L16.3911 8.39538L14.9766 6.98145ZM12.3848 11.335L13.2792 13.1238C14.245 12.6409 14.6531 11.4786 14.2012 10.4979C13.7492 9.51722 12.6005 9.07234 11.6059 9.49285L12.3848 11.335ZM10.7977 9.85756C9.80166 10.3349 9.38116 11.5294 9.85854 12.5255C10.3359 13.5216 11.5304 13.9421 12.5265 13.4647L11.6621 11.6611L10.7977 9.85756ZM12.3809 11.3369L13.1602 13.1788C13.1991 13.1624 13.2375 13.1447 13.2753 13.1258L12.3809 11.3369ZM13.3525 8.85386C12.2977 9.18181 11.7085 10.3027 12.0365 11.3575C12.3644 12.4122 13.4853 13.0014 14.5401 12.6735L13.9463 10.7637L13.3525 8.85386ZM14.3447 10.6455L14.8913 12.5694C15.0112 12.5353 15.1277 12.4901 15.2392 12.4344L14.3447 10.6455ZM14.3467 10.6445L15.2411 12.4334C16.1644 11.9718 16.5846 10.8833 16.2112 9.921C15.8378 8.95868 14.7933 8.43863 13.8004 8.72059L14.3467 10.6445ZM16.255 12.2509C17.3412 12.0502 18.059 11.007 17.8583 9.92077C17.6576 8.83459 16.6144 8.11677 15.5282 8.31747L15.8916 10.2842L16.255 12.2509ZM14.9134 8.44194C13.8344 8.67856 13.1516 9.74502 13.3882 10.8239C13.6248 11.9029 14.6913 12.5857 15.7702 12.3491L15.3418 10.3955L14.9134 8.44194ZM17.026 12.1285C18.1211 11.9847 18.8924 10.9803 18.7486 9.88517C18.6048 8.79 17.6005 8.01874 16.5053 8.16252L16.7656 10.1455L17.026 12.1285ZM15.7324 8.2804C14.6441 8.46919 13.9149 9.50449 14.1036 10.5928C14.2924 11.6811 15.3277 12.4103 16.416 12.2215L16.0742 10.251L15.7324 8.2804ZM27 2V4C35.2843 4 42 10.7157 42 19H44H46C46 8.50659 37.4934 0 27 0V2ZM44 19H42C42 23.1416 40.3242 26.8882 37.6089 29.6046L39.0234 31.0186L40.4379 32.4325C43.8725 28.9965 46 24.2447 46 19H44ZM39.0234 31.0186L37.6092 29.6043L29.6092 37.6043L31.0234 39.0186L32.4377 40.4328L40.4377 32.4328L39.0234 31.0186ZM31.0234 39.0186L29.6089 37.6046C26.8922 40.3225 23.1439 42 19 42V44V46C24.2475 46 29.0015 43.8703 32.4379 40.4325L31.0234 39.0186ZM19 44V42C10.7157 42 4 35.2843 4 27H2H0C0 37.4934 8.50659 46 19 46V44ZM2 27H4C4 22.8584 5.67577 19.1118 8.39107 16.3954L6.97656 14.9814L5.56205 13.5675C2.12753 17.0035 0 21.7553 0 27H2ZM6.97656 14.9814L8.39078 16.3957L16.3908 8.39566L14.9766 6.98145L13.5623 5.56723L5.56235 13.5672L6.97656 14.9814ZM14.9766 6.98145L16.3911 8.39538C19.1078 5.67753 22.8562 4 27 4V2V0C21.7526 0 16.9985 2.12976 13.5621 5.56751L14.9766 6.98145ZM12.3848 11.335L11.6059 9.49285C11.3313 9.60896 11.0619 9.73095 10.7978 9.85756L11.6621 11.6611L12.5265 13.4647C12.7382 13.3633 12.9504 13.2672 13.1636 13.1771L12.3848 11.335ZM11.6621 11.6611L12.5265 13.4647C12.7357 13.3644 12.947 13.269 13.1602 13.1788L12.3809 11.3369L11.6015 9.49501C11.3297 9.61002 11.0618 9.73103 10.7977 9.85756L11.6621 11.6611ZM12.3809 11.3369L13.2753 13.1258L13.2792 13.1238L12.3848 11.335L11.4903 9.54611L11.4864 9.54806L12.3809 11.3369ZM13.9463 10.7637L14.5401 12.6735C14.6535 12.6382 14.7704 12.6037 14.8913 12.5694L14.3447 10.6455L13.7982 8.72164C13.6522 8.76311 13.5032 8.80699 13.3525 8.85386L13.9463 10.7637ZM14.3447 10.6455L15.2392 12.4344L15.2411 12.4334L14.3467 10.6445L13.4523 8.85568L13.4503 8.85665L14.3447 10.6455ZM14.3467 10.6445L13.8004 8.72059C13.6497 8.76338 13.5004 8.80787 13.3525 8.85385L13.9463 10.7637L14.5401 12.6735C14.6577 12.6369 14.7754 12.6019 14.893 12.5685L14.3467 10.6445ZM15.8916 10.2842L15.5282 8.31747C15.3202 8.35591 15.1152 8.39767 14.9134 8.44193L15.3418 10.3955L15.7702 12.3491C15.9328 12.3134 16.0943 12.2806 16.255 12.2509L15.8916 10.2842ZM15.3418 10.3955L15.7702 12.3491C15.9328 12.3134 16.0943 12.2806 16.255 12.2509L15.8916 10.2842L15.5282 8.31747C15.3202 8.35591 15.1152 8.39767 14.9134 8.44194L15.3418 10.3955ZM16.7656 10.1455L16.5053 8.16252C16.2451 8.19669 15.9874 8.23617 15.7324 8.2804L16.0742 10.251L16.416 12.2216C16.6189 12.1864 16.8222 12.1552 17.026 12.1285L16.7656 10.1455ZM16.0742 10.251L16.416 12.2215C16.6189 12.1864 16.8222 12.1552 17.026 12.1285L16.7656 10.1455L16.5053 8.16252C16.2451 8.19669 15.9874 8.23617 15.7324 8.2804L16.0742 10.251Z" fill="var(--stroke-0, #252525)"/>
</g>
<circle id="Ellipse 255" cx="27" cy="19" r="17" fill="var(--fill-0, #FFE14D)" stroke="var(--stroke-0, #252525)" stroke-width="4"/>
</g>
<defs>
<pattern id="pattern0_2431_27710" patternUnits="userSpaceOnUse" patternTransform="matrix(3.3872 0 0 6.7744 2 2)" preserveAspectRatio="none" viewBox="0 0 2.92 5.84" width="1" height="1">
<use xlink:href="#pattern0_2431_27710_inner" transform="translate(-2.92 0)"/>
<g id="pattern0_2431_27710_inner">
<circle id="Ellipse 248" cx="1" cy="1" r="1" fill="var(--fill-0, #252525)"/>
</g>
<use xlink:href="#pattern0_2431_27710_inner" transform="translate(-1.46 2.92)"/>
<use xlink:href="#pattern0_2431_27710_inner" transform="translate(1.46 2.92)"/>
</pattern></defs>
</svg>
