<svg preserveAspectRatio="none" width="100%" height="100%" overflow="visible" style="display: block;" viewBox="0 0 27.3366 31.7599" fill="none" xmlns="http://www.w3.org/2000/svg">
<path id="outline-6b" d="M8.62291 31.7599C9.99534 31.7599 10.5976 31.1577 10.5976 29.7852V20.3856H15.8339C16.479 20.3856 16.7785 20.7707 16.7785 21.4157V29.7852C16.7785 31.1577 17.3808 31.7599 18.7532 31.7599H25.3619C26.7343 31.7599 27.3366 31.1577 27.3366 29.7852V17.6835C27.3366 14.2081 25.3619 11.8911 22.2715 11.4599L26.392 2.0175C26.9515 0.730645 26.4776 0 25.0624 0H18.4537C17.124 0 16.4362 0.470638 15.9228 1.67521L11.631 11.4171H10.6009V1.97471C10.6009 0.602287 9.99863 0 8.62621 0H1.97471C0.602287 0 0 0.602287 0 1.97471V29.7852C0 31.1577 0.602287 31.7599 1.97471 31.7599H8.62621H8.62291Z" fill="var(--fill-0, black)"/>
</svg>
