<svg preserveAspectRatio="none" width="100%" height="100%" overflow="visible" style="display: block;" viewBox="0 0 144 144" fill="none" xmlns="http://www.w3.org/2000/svg">
<g id="Group 1006">
<g id="Union">
<path d="M90 2C94.4183 2 98 5.58172 98 10V46H134C138.418 46 142 49.5817 142 54V90C142 94.4183 138.418 98 134 98H98V134C98 138.418 94.4183 142 90 142H54C49.5817 142 46 138.418 46 134V98H10C5.58172 98 2 94.4183 2 90V54C2 49.5817 5.58172 46 10 46H46V10C46 5.58172 49.5817 2 54 2H90Z" fill="var(--fill-0, #2ee8d5)"/>
<path d="M98 10H100H98ZM98 46H96C96 47.1046 96.8954 48 98 48V46ZM134 46V44V44V46ZM142 54H144V54H142ZM142 90H144V90H142ZM134 98V100V100V98ZM98 98V96C96.8954 96 96 96.8954 96 98H98ZM90 142V144V144V142ZM46 134H44H46ZM46 98H48C48 96.8954 47.1046 96 46 96V98ZM10 98V96V96V98ZM2 90H0V90H2ZM2 54H0V54H2ZM10 46V44V44V46ZM46 46V48C47.1046 48 48 47.1046 48 46H46ZM54 2V0V0V2ZM90 2V4C93.3137 4 96 6.68629 96 10H98H100C100 4.47715 95.5229 0 90 0V2ZM98 10H96V46H98H100V10H98ZM98 46V48H134V46V44H98V46ZM134 46V48C137.314 48 140 50.6863 140 54H142H144C144 48.4772 139.523 44 134 44V46ZM142 54H140V90H142H144V54H142ZM142 90H140C140 93.3137 137.314 96 134 96V98V100C139.523 100 144 95.5228 144 90H142ZM134 98V96H98V98V100H134V98ZM98 98H96V134H98H100V98H98ZM98 134H96C96 137.314 93.3137 140 90 140V142V144C95.5229 144 100 139.523 100 134H98ZM90 142V140H54V142V144H90V142ZM54 142V140C50.6863 140 48 137.314 48 134H46H44C44 139.523 48.4772 144 54 144V142ZM46 134H48V98H46H44V134H46ZM46 98V96H10V98V100H46V98ZM10 98V96C6.68629 96 4 93.3137 4 90H2H0C2.38419e-07 95.5229 4.47715 100 10 100V98ZM2 90H4V54H2H0V90H2ZM2 54H4C4 50.6863 6.6863 48 10 48V46V44C4.47715 44 3.8147e-06 48.4772 0 54H2ZM10 46V48H46V46V44H10V46ZM46 46H48V10H46H44V46H46ZM46 10H48C48 6.68629 50.6863 4 54 4V2V0C48.4772 2.38419e-07 44 4.47715 44 10H46ZM54 2V4H90V2V0H54V2Z" fill="var(--stroke-0, #252525)"/>
</g>
<path id="Polygon 13" d="M72 18L84.1244 39H59.8756L72 18Z" fill="var(--fill-0, #252525)"/>
<path id="Polygon 14" d="M72 126L59.8756 105L84.1244 105L72 126Z" fill="var(--fill-0, #252525)"/>
<path id="Polygon 15" d="M18 72L39 59.8756L39 84.1244L18 72Z" fill="var(--fill-0, #252525)"/>
<path id="Polygon 16" d="M126 72L105 84.1244L105 59.8756L126 72Z" fill="var(--fill-0, #252525)"/>
</g>
</svg>
