<svg preserveAspectRatio="none" width="100%" height="100%" overflow="visible" style="display: block;" viewBox="0 0 160 158" fill="none" xmlns="http://www.w3.org/2000/svg" xmlns:xlink="http://www.w3.org/1999/xlink">
<g id="Group 1007">
<rect id="Rectangle 932" x="28" width="7" height="158" rx="3.5" fill="var(--fill-0, #252525)"/>
<rect id="Rectangle 933" x="113" width="7" height="158" rx="3.5" fill="var(--fill-0, #252525)"/>
<g id="Union">
<path d="M152 26C152.845 26 153.649 26.1758 154.379 26.4912C154.391 26.4963 154.403 26.5006 154.415 26.5059C154.446 26.5196 154.477 26.5346 154.508 26.5488C154.551 26.5687 154.594 26.5885 154.637 26.6094C154.647 26.6146 154.658 26.6197 154.669 26.625L154.86 26.7246C154.871 26.7302 154.88 26.7366 154.891 26.7422C154.928 26.7628 154.965 26.7843 155.002 26.8057C155.047 26.8317 155.093 26.8566 155.137 26.8838C155.183 26.912 155.227 26.9423 155.272 26.9717C155.304 26.9923 155.336 27.0121 155.367 27.0332C155.5 27.1232 155.627 27.2194 155.752 27.3193C155.776 27.3383 155.8 27.3566 155.823 27.376C156.114 27.6169 156.382 27.8848 156.623 28.1758C156.64 28.1957 156.656 28.2161 156.672 28.2363C156.775 28.3641 156.873 28.4958 156.966 28.6318C156.979 28.6505 156.99 28.6697 157.003 28.6885C157.041 28.7459 157.079 28.8035 157.115 28.8623C157.139 28.9008 157.161 28.9404 157.184 28.9795C157.209 29.0222 157.233 29.0651 157.257 29.1084C157.276 29.144 157.296 29.1798 157.314 29.2158C157.34 29.2644 157.365 29.313 157.39 29.3623C157.41 29.4029 157.428 29.4442 157.447 29.4854C157.463 29.5185 157.479 29.5515 157.494 29.585C157.499 29.5965 157.503 29.6086 157.508 29.6201C157.824 30.3499 158 31.1542 158 32V46C158 47.6293 157.349 49.1053 156.295 50.1865C156.278 50.2045 156.261 50.2241 156.243 50.2422L156.222 50.2627C156.228 50.2563 156.236 50.2506 156.242 50.2441L150.026 56.459L144.243 62.2422L144.035 62.4404C142.97 63.4094 141.554 64 140 64H93C92.1542 64 91.3499 63.8236 90.6201 63.5078C90.6086 63.5029 90.5965 63.4992 90.585 63.4941C90.5535 63.4803 90.5224 63.4646 90.4912 63.4502C90.4481 63.4303 90.4049 63.4105 90.3623 63.3896C90.3193 63.3685 90.2768 63.3463 90.2344 63.3242C90.1921 63.3022 90.1501 63.2798 90.1084 63.2568C90.071 63.2362 90.034 63.2148 89.9971 63.1934C89.9521 63.1673 89.9065 63.1424 89.8623 63.1152C89.8035 63.0791 89.7459 63.041 89.6885 63.0029C89.6697 62.9905 89.6505 62.9785 89.6318 62.9658C89.4958 62.8733 89.3641 62.7749 89.2363 62.6719C89.2161 62.6556 89.1957 62.6396 89.1758 62.623C88.8848 62.3821 88.6169 62.1143 88.376 61.8232C88.3594 61.8033 88.3434 61.7829 88.3271 61.7627C88.2241 61.6349 88.1256 61.5033 88.0332 61.3672C88.0121 61.3361 87.9923 61.304 87.9717 61.2725C87.9423 61.2273 87.912 61.1827 87.8838 61.1367C87.8566 61.0925 87.8317 61.0469 87.8057 61.002C87.7843 60.965 87.7628 60.9281 87.7422 60.8906C87.7366 60.8804 87.7302 60.8706 87.7246 60.8604L87.625 60.6689C87.6197 60.6583 87.6146 60.6474 87.6094 60.6367C87.5885 60.5941 87.5687 60.551 87.5488 60.5078C87.5346 60.477 87.5196 60.4461 87.5059 60.415C87.5006 60.4031 87.4963 60.3908 87.4912 60.3789C87.1758 59.6494 87 58.8453 87 58V44C87 42.3427 87.6715 40.8417 88.7578 39.7559L100.759 27.7568C100.76 27.756 100.76 27.7547 100.761 27.7539C101.846 26.6701 103.345 26 105 26H152Z" fill="var(--fill-0, white)"/>
<path d="M152 26C152.845 26 153.649 26.1758 154.379 26.4912C154.391 26.4963 154.403 26.5006 154.415 26.5059C154.446 26.5196 154.477 26.5346 154.508 26.5488C154.551 26.5687 154.594 26.5885 154.637 26.6094C154.647 26.6146 154.658 26.6197 154.669 26.625L154.86 26.7246C154.871 26.7302 154.88 26.7366 154.891 26.7422C154.928 26.7628 154.965 26.7843 155.002 26.8057C155.047 26.8317 155.093 26.8566 155.137 26.8838C155.183 26.912 155.227 26.9423 155.272 26.9717C155.304 26.9923 155.336 27.0121 155.367 27.0332C155.5 27.1232 155.627 27.2194 155.752 27.3193C155.776 27.3383 155.8 27.3566 155.823 27.376C156.114 27.6169 156.382 27.8848 156.623 28.1758C156.64 28.1957 156.656 28.2161 156.672 28.2363C156.775 28.3641 156.873 28.4958 156.966 28.6318C156.979 28.6505 156.99 28.6697 157.003 28.6885C157.041 28.7459 157.079 28.8035 157.115 28.8623C157.139 28.9008 157.161 28.9404 157.184 28.9795C157.209 29.0222 157.233 29.0651 157.257 29.1084C157.276 29.144 157.296 29.1798 157.314 29.2158C157.34 29.2644 157.365 29.313 157.39 29.3623C157.41 29.4029 157.428 29.4442 157.447 29.4854C157.463 29.5185 157.479 29.5515 157.494 29.585C157.499 29.5965 157.503 29.6086 157.508 29.6201C157.824 30.3499 158 31.1542 158 32V46C158 47.6293 157.349 49.1053 156.295 50.1865C156.278 50.2045 156.261 50.2241 156.243 50.2422L156.222 50.2627C156.228 50.2563 156.236 50.2506 156.242 50.2441L150.026 56.459L144.243 62.2422L144.035 62.4404C142.97 63.4094 141.554 64 140 64H93C92.1542 64 91.3499 63.8236 90.6201 63.5078C90.6086 63.5029 90.5965 63.4992 90.585 63.4941C90.5535 63.4803 90.5224 63.4646 90.4912 63.4502C90.4481 63.4303 90.4049 63.4105 90.3623 63.3896C90.3193 63.3685 90.2768 63.3463 90.2344 63.3242C90.1921 63.3022 90.1501 63.2798 90.1084 63.2568C90.071 63.2362 90.034 63.2148 89.9971 63.1934C89.9521 63.1673 89.9065 63.1424 89.8623 63.1152C89.8035 63.0791 89.7459 63.041 89.6885 63.0029C89.6697 62.9905 89.6505 62.9785 89.6318 62.9658C89.4958 62.8733 89.3641 62.7749 89.2363 62.6719C89.2161 62.6556 89.1957 62.6396 89.1758 62.623C88.8848 62.3821 88.6169 62.1143 88.376 61.8232C88.3594 61.8033 88.3434 61.7829 88.3271 61.7627C88.2241 61.6349 88.1256 61.5033 88.0332 61.3672C88.0121 61.3361 87.9923 61.304 87.9717 61.2725C87.9423 61.2273 87.912 61.1827 87.8838 61.1367C87.8566 61.0925 87.8317 61.0469 87.8057 61.002C87.7843 60.965 87.7628 60.9281 87.7422 60.8906C87.7366 60.8804 87.7302 60.8706 87.7246 60.8604L87.625 60.6689C87.6197 60.6583 87.6146 60.6474 87.6094 60.6367C87.5885 60.5941 87.5687 60.551 87.5488 60.5078C87.5346 60.477 87.5196 60.4461 87.5059 60.415C87.5006 60.4031 87.4963 60.3908 87.4912 60.3789C87.1758 59.6494 87 58.8453 87 58V44C87 42.3427 87.6715 40.8417 88.7578 39.7559L100.759 27.7568C100.76 27.756 100.76 27.7547 100.761 27.7539C101.846 26.6701 103.345 26 105 26H152Z" fill="url(#pattern0_2431_27758)"/>
<path d="M152 26V24V24V26ZM154.379 26.4912L153.585 28.3269C153.59 28.3289 153.594 28.3308 153.599 28.3327L154.379 26.4912ZM154.415 26.5059L155.221 24.6754L155.221 24.6753L154.415 26.5059ZM154.508 26.5488L153.671 28.3652V28.3652L154.508 26.5488ZM154.637 26.6094L155.517 24.8134V24.8134L154.637 26.6094ZM154.669 26.625L155.592 24.8509C155.581 24.8453 155.571 24.8398 155.56 24.8344L154.669 26.625ZM154.86 26.7246L155.815 24.9673C155.805 24.9616 155.794 24.956 155.784 24.9505L154.86 26.7246ZM154.891 26.7422L155.856 24.9905V24.9905L154.891 26.7422ZM155.002 26.8057L154 28.5363V28.5363L155.002 26.8057ZM155.137 26.8838L156.184 25.1797V25.1797L155.137 26.8838ZM155.272 26.9717L154.18 28.6469V28.6469L155.272 26.9717ZM155.367 27.0332L156.491 25.3788V25.3788L155.367 27.0332ZM155.752 27.3193L154.5 28.8791L155.752 27.3193ZM155.823 27.376L157.099 25.8353L155.823 27.376ZM156.623 28.1758L158.163 26.9001V26.9001L156.623 28.1758ZM156.672 28.2363L155.115 29.492V29.492L156.672 28.2363ZM156.966 28.6318L158.62 27.5077V27.5077L156.966 28.6318ZM157.003 28.6885L155.336 29.7939V29.7939L157.003 28.6885ZM157.115 28.8623L158.819 27.8149V27.8149L157.115 28.8623ZM157.184 28.9795L155.457 29.988V29.988L157.184 28.9795ZM157.257 29.1084L159.008 28.1429V28.1429L157.257 29.1084ZM157.314 29.2158L155.544 30.1454V30.1454L157.314 29.2158ZM157.39 29.3623L159.185 28.4818V28.4818L157.39 29.3623ZM157.447 29.4854L155.632 30.3248V30.3248L157.447 29.4854ZM157.494 29.585L159.325 28.7793L159.325 28.7791L157.494 29.585ZM157.508 29.6201L155.667 30.4012C155.669 30.4056 155.67 30.41 155.672 30.4143L157.508 29.6201ZM158 32H160H158ZM156.295 50.1865L154.863 48.7904C154.854 48.799 154.846 48.8076 154.838 48.8164L156.295 50.1865ZM156.243 50.2422L157.624 51.6889C157.635 51.6781 157.647 51.6672 157.658 51.6561L156.243 50.2422ZM156.222 50.2627L154.814 48.8418C154.035 49.614 154.023 50.8702 154.788 51.657C155.553 52.4437 156.809 52.4671 157.603 51.7094L156.222 50.2627ZM156.242 50.2441L157.656 51.6585C158.437 50.8775 158.438 49.6113 157.657 48.8301C156.876 48.049 155.609 48.0488 154.828 48.8296L156.242 50.2441ZM150.026 56.459L148.612 55.0447L148.612 55.0448L150.026 56.459ZM144.243 62.2422L145.623 63.69C145.635 63.6789 145.646 63.6677 145.657 63.6564L144.243 62.2422ZM144.035 62.4404L145.381 63.9202C145.392 63.9097 145.404 63.899 145.415 63.8882L144.035 62.4404ZM93 64L93 66H93V64ZM90.6201 63.5078L91.4143 61.6723C91.41 61.6704 91.4056 61.6685 91.4012 61.6666L90.6201 63.5078ZM90.585 63.4941L89.7791 65.3246L89.7793 65.3247L90.585 63.4941ZM90.4912 63.4502L91.3286 61.634H91.3286L90.4912 63.4502ZM90.3623 63.3896L89.4818 65.1854H89.4818L90.3623 63.3896ZM90.2344 63.3242L91.1578 61.5502H91.1578L90.2344 63.3242ZM90.1084 63.2568L89.1429 65.0084H89.1429L90.1084 63.2568ZM89.9971 63.1934L90.9998 61.4629H90.9998L89.9971 63.1934ZM89.8623 63.1152L88.8149 64.8191H88.8149L89.8623 63.1152ZM89.6885 63.0029L90.7939 61.3362H90.7939L89.6885 63.0029ZM89.6318 62.9658L88.5077 64.62H88.5077L89.6318 62.9658ZM89.2363 62.6719L90.492 61.1152H90.492L89.2363 62.6719ZM89.1758 62.623L87.9001 64.1634H87.9001L89.1758 62.623ZM88.376 61.8232L89.9166 60.548V60.548L88.376 61.8232ZM88.3271 61.7627L86.7702 63.018H86.7702L88.3271 61.7627ZM88.0332 61.3672L86.3788 62.491H86.3788L88.0332 61.3672ZM87.9717 61.2725L89.6469 60.18V60.18L87.9717 61.2725ZM87.8838 61.1367L86.1797 62.1837H86.1797L87.8838 61.1367ZM87.8057 61.002L89.5363 59.9996H89.5363L87.8057 61.002ZM87.7422 60.8906L85.9905 61.8557H85.9905L87.7422 60.8906ZM87.7246 60.8604L85.9505 61.7836C85.956 61.7942 85.9616 61.8047 85.9673 61.8152L87.7246 60.8604ZM87.625 60.6689L85.8344 61.5598C85.8398 61.5707 85.8453 61.5815 85.8509 61.5922L87.625 60.6689ZM87.6094 60.6367L85.8134 61.5168L85.8134 61.5168L87.6094 60.6367ZM87.5488 60.5078L89.3652 59.6708H89.3652L87.5488 60.5078ZM87.5059 60.415L85.6753 61.2207L85.6754 61.2209L87.5059 60.415ZM87.4912 60.3789L89.3327 59.5986C89.3308 59.5941 89.3289 59.5896 89.3269 59.5851L87.4912 60.3789ZM88.7578 39.7559L90.1717 41.1704L90.1719 41.1702L88.7578 39.7559ZM100.759 27.7568L99.3449 26.3423L99.3447 26.3425L100.759 27.7568ZM100.761 27.7539L102.173 29.1704L102.174 29.1693L100.761 27.7539ZM152 26V28C152.566 28 153.1 28.1172 153.585 28.3269L154.379 26.4912L155.173 24.6555C154.199 24.2344 153.125 24 152 24V26ZM154.379 26.4912L153.599 28.3327C153.62 28.3417 153.637 28.3488 153.648 28.3531C153.654 28.3553 153.658 28.3571 153.661 28.3582C153.663 28.3588 153.664 28.3593 153.665 28.3597C153.666 28.36 153.666 28.3602 153.667 28.3603C153.667 28.3605 153.666 28.36 153.664 28.3592C153.662 28.3584 153.658 28.357 153.653 28.355C153.644 28.3513 153.629 28.3449 153.609 28.3364L154.415 26.5059L155.221 24.6753C155.195 24.6642 155.174 24.6553 155.159 24.6491C155.144 24.6431 155.132 24.6383 155.127 24.6366C155.12 24.6337 155.125 24.6355 155.128 24.6367C155.132 24.6386 155.144 24.6433 155.159 24.6497L154.379 26.4912ZM154.415 26.5059L153.609 28.3363C153.602 28.3331 153.6 28.3319 153.612 28.3375C153.614 28.3388 153.617 28.3402 153.621 28.342C153.625 28.3437 153.629 28.3459 153.634 28.3481C153.644 28.3526 153.656 28.3587 153.671 28.3652L154.508 26.5488L155.345 24.7324C155.338 24.7293 155.337 24.7289 155.312 24.7168C155.293 24.7078 155.259 24.6923 155.221 24.6754L154.415 26.5059ZM154.508 26.5488L153.671 28.3652C153.721 28.3885 153.74 28.3972 153.757 28.4053L154.637 26.6094L155.517 24.8134C155.448 24.7798 155.381 24.749 155.345 24.7324L154.508 26.5488ZM154.637 26.6094L153.757 28.4053C153.765 28.4093 153.772 28.4127 153.777 28.415C153.779 28.4162 153.781 28.4173 153.783 28.418C153.784 28.4184 153.785 28.4188 153.785 28.4191C153.786 28.4195 153.786 28.4197 153.787 28.4199C153.789 28.4209 153.788 28.4207 153.787 28.4202C153.786 28.4195 153.783 28.4179 153.778 28.4156L154.669 26.625L155.56 24.8344C155.541 24.825 155.525 24.8172 155.519 24.8144C155.514 24.8122 155.514 24.8122 155.513 24.8116C155.512 24.8113 155.514 24.8121 155.517 24.8134L154.637 26.6094ZM154.669 26.625L153.746 28.3991L153.937 28.4987L154.86 26.7246L155.784 24.9505L155.592 24.8509L154.669 26.625ZM154.86 26.7246L153.905 28.482C153.885 28.471 153.87 28.4619 153.861 28.4568C153.856 28.4541 153.853 28.4521 153.851 28.451C153.849 28.45 153.848 28.4494 153.849 28.4501C153.85 28.4503 153.853 28.4522 153.856 28.454C153.859 28.456 153.865 28.4591 153.871 28.4628C153.883 28.4699 153.902 28.481 153.926 28.4939L154.891 26.7422L155.856 24.9905C155.874 25.0006 155.888 25.0088 155.895 25.0129C155.899 25.0151 155.902 25.0167 155.903 25.0172C155.903 25.0176 155.904 25.018 155.902 25.0167C155.899 25.0154 155.888 25.0087 155.875 25.0011C155.861 24.993 155.841 24.981 155.815 24.9673L154.86 26.7246ZM154.891 26.7422L153.926 28.4939C153.94 28.5022 153.958 28.512 154 28.5363L155.002 26.8057L156.004 25.075C155.972 25.0565 155.916 25.0235 155.856 24.9905L154.891 26.7422ZM155.002 26.8057L154 28.5363C154.018 28.5467 154.034 28.5562 154.047 28.5633C154.061 28.5718 154.068 28.5755 154.077 28.5809C154.094 28.5904 154.095 28.591 154.09 28.5879L155.137 26.8838L156.184 25.1797C156.134 25.1494 156.09 25.124 156.062 25.1078C156.023 25.0856 156.021 25.0848 156.004 25.075L155.002 26.8057ZM155.137 26.8838L154.09 28.5879C154.089 28.5873 154.093 28.59 154.109 28.6005C154.118 28.6059 154.126 28.6113 154.138 28.6196C154.15 28.627 154.164 28.6367 154.18 28.6469L155.272 26.9717L156.365 25.2964C156.358 25.2921 156.26 25.2266 156.184 25.1797L155.137 26.8838ZM155.272 26.9717L154.18 28.6469C154.194 28.6563 154.207 28.6647 154.217 28.6709C154.222 28.674 154.227 28.6771 154.23 28.6794C154.234 28.6819 154.237 28.6838 154.24 28.6856C154.252 28.6934 154.25 28.6922 154.243 28.6876L155.367 27.0332L156.491 25.3788C156.453 25.353 156.419 25.3314 156.4 25.3188C156.373 25.3019 156.372 25.3013 156.365 25.2964L155.272 26.9717ZM155.367 27.0332L154.243 28.6876C154.323 28.7415 154.407 28.8046 154.5 28.8791L155.752 27.3193L157.004 25.7596C156.848 25.6341 156.677 25.5048 156.491 25.3788L155.367 27.0332ZM155.752 27.3193L154.5 28.8791C154.513 28.8899 154.525 28.8992 154.534 28.906C154.538 28.9094 154.542 28.9126 154.546 28.915C154.549 28.9178 154.551 28.9194 154.553 28.9212C154.563 28.9288 154.558 28.9247 154.548 28.9166L155.823 27.376L157.099 25.8353C157.065 25.8079 157.036 25.785 157.022 25.7739C157.011 25.7652 157.012 25.7658 157.006 25.761C157.002 25.7583 157.002 25.7583 157.004 25.7596L155.752 27.3193ZM155.823 27.376L154.548 28.9166C154.742 29.0774 154.921 29.2565 155.083 29.4514L156.623 28.1758L158.163 26.9001C157.843 26.5131 157.486 26.1564 157.099 25.8353L155.823 27.376ZM156.623 28.1758L155.083 29.4514C155.08 29.4488 155.081 29.4488 155.087 29.4564C155.09 29.4608 155.092 29.4634 155.098 29.4704C155.102 29.4761 155.108 29.4837 155.115 29.492L156.672 28.2363L158.229 26.9807C158.223 26.9737 158.222 26.9728 158.208 26.9556C158.198 26.9429 158.182 26.9228 158.163 26.9001L156.623 28.1758ZM156.672 28.2363L155.115 29.492C155.187 29.5815 155.253 29.6693 155.312 29.756L156.966 28.6318L158.62 27.5077C158.494 27.3222 158.362 27.1467 158.229 26.9807L156.672 28.2363ZM156.966 28.6318L155.312 29.756C155.308 29.75 155.305 29.7457 155.304 29.7443C155.303 29.7431 155.303 29.7432 155.305 29.7467C155.307 29.7487 155.308 29.75 155.31 29.7532C155.311 29.7559 155.314 29.7594 155.316 29.7633C155.321 29.7709 155.328 29.7817 155.336 29.7939L157.003 28.6885L158.67 27.583C158.672 27.5859 158.672 27.5872 158.671 27.5853C158.669 27.582 158.669 27.5816 158.664 27.5735C158.656 27.5626 158.64 27.537 158.62 27.5077L156.966 28.6318ZM157.003 28.6885L155.336 29.7939C155.376 29.8535 155.396 29.8842 155.411 29.9097L157.115 28.8623L158.819 27.8149C158.762 27.7228 158.706 27.6383 158.67 27.583L157.003 28.6885ZM157.115 28.8623L155.411 29.9097C155.408 29.904 155.408 29.9036 155.416 29.9182C155.421 29.9271 155.424 29.9316 155.432 29.9455C155.438 29.9568 155.447 29.9717 155.457 29.988L157.184 28.9795L158.911 27.9709C158.903 27.9582 158.902 27.9563 158.883 27.9231C158.869 27.8986 158.846 27.8592 158.819 27.8149L157.115 28.8623ZM157.184 28.9795L155.457 29.988C155.474 30.0183 155.49 30.0468 155.505 30.0739L157.257 29.1084L159.008 28.1429C158.976 28.0833 158.943 28.026 158.911 27.9709L157.184 28.9795ZM157.257 29.1084L155.505 30.0739C155.516 30.0935 155.528 30.1164 155.544 30.1454L157.314 29.2158L159.085 28.2862C159.063 28.2432 159.037 28.1945 159.008 28.1429L157.257 29.1084ZM157.314 29.2158L155.544 30.1454C155.571 30.1982 155.584 30.2224 155.594 30.2428L157.39 29.3623L159.185 28.4818C159.147 28.4036 159.109 28.3306 159.085 28.2862L157.314 29.2158ZM157.39 29.3623L155.594 30.2428C155.601 30.2564 155.603 30.2632 155.632 30.3248L157.447 29.4854L159.263 28.6459C159.253 28.6252 159.219 28.5494 159.185 28.4818L157.39 29.3623ZM157.447 29.4854L155.632 30.3248C155.641 30.3443 155.649 30.3614 155.655 30.3737C155.658 30.3798 155.661 30.3856 155.663 30.39C155.665 30.3949 155.667 30.3978 155.668 30.4009C155.671 30.407 155.671 30.4079 155.671 30.4068C155.67 30.4054 155.668 30.3997 155.664 30.3909L157.494 29.585L159.325 28.7791C159.303 28.7302 159.283 28.6885 159.274 28.6691C159.267 28.6542 159.267 28.6546 159.263 28.6467C159.261 28.6424 159.261 28.643 159.263 28.6459L157.447 29.4854ZM157.494 29.585L155.664 30.3906C155.649 30.3583 155.639 30.332 155.633 30.3163C155.63 30.3082 155.627 30.3018 155.626 30.2981C155.625 30.2945 155.624 30.292 155.624 30.2928C155.624 30.293 155.624 30.2931 155.624 30.2935C155.624 30.2939 155.625 30.2945 155.625 30.2951C155.625 30.2963 155.626 30.2983 155.627 30.3006C155.628 30.3051 155.631 30.3125 155.635 30.3213C155.638 30.3303 155.642 30.3417 155.648 30.3549C155.653 30.3682 155.659 30.3838 155.667 30.4012L157.508 29.6201L159.349 28.839C159.361 28.8675 159.37 28.89 159.374 28.9014C159.376 28.9074 159.378 28.9118 159.379 28.9133C159.379 28.9141 159.379 28.9158 159.378 28.9122C159.377 28.9089 159.371 28.8917 159.363 28.8711C159.354 28.8495 159.341 28.8174 159.325 28.7793L157.494 29.585ZM157.508 29.6201L155.672 30.4143C155.883 30.9004 156 31.435 156 32H158H160C160 30.8735 159.765 29.7994 159.343 28.8259L157.508 29.6201ZM158 32H156V46H158H160V32H158ZM158 46H156C156 47.085 155.569 48.0662 154.863 48.7904L156.295 50.1865L157.727 51.5827C159.129 50.1445 160 48.1735 160 46H158ZM156.295 50.1865L154.838 48.8164C154.823 48.8322 154.811 48.8458 154.803 48.8538C154.8 48.8578 154.796 48.8616 154.794 48.8637C154.792 48.8663 154.791 48.8672 154.791 48.8678C154.789 48.8691 154.793 48.8652 154.799 48.8591C154.805 48.8527 154.815 48.8418 154.829 48.8283L156.243 50.2422L157.658 51.6561C157.701 51.6129 157.735 51.5753 157.748 51.5608C157.752 51.5567 157.755 51.5529 157.757 51.5508C157.76 51.5482 157.761 51.5474 157.761 51.5467C157.762 51.5454 157.758 51.5498 157.752 51.5567L156.295 50.1865ZM156.243 50.2422L154.862 48.7955L154.841 48.816L156.222 50.2627L157.603 51.7094L157.624 51.6889L156.243 50.2422ZM156.222 50.2627L157.629 51.6836C157.598 51.7143 157.572 51.7376 157.558 51.7504C157.551 51.757 157.545 51.7621 157.542 51.7648C157.539 51.7671 157.537 51.7691 157.539 51.7675C157.539 51.7669 157.544 51.7632 157.549 51.7588C157.554 51.7541 157.562 51.747 157.572 51.7383C157.591 51.7213 157.621 51.6939 157.656 51.6586L156.242 50.2441L154.828 48.8296C154.845 48.8133 154.859 48.7993 154.872 48.7878C154.884 48.7762 154.894 48.7666 154.902 48.7594C154.91 48.7523 154.917 48.7467 154.92 48.7435C154.924 48.7406 154.926 48.7384 154.925 48.7393C154.925 48.7394 154.924 48.7405 154.923 48.7415C154.921 48.7427 154.919 48.7445 154.917 48.7466C154.912 48.7508 154.904 48.7574 154.895 48.7656C154.886 48.7738 154.874 48.7844 154.861 48.7969C154.847 48.8094 154.832 48.8245 154.814 48.8418L156.222 50.2627ZM156.242 50.2441L154.828 48.8298L148.612 55.0447L150.026 56.459L151.44 57.8733L157.656 51.6585L156.242 50.2441ZM150.026 56.459L148.612 55.0448L142.829 60.828L144.243 62.2422L145.657 63.6564L151.441 57.8732L150.026 56.459ZM144.243 62.2422L142.863 60.7944L142.655 60.9926L144.035 62.4404L145.415 63.8882L145.623 63.69L144.243 62.2422ZM144.035 62.4404L142.69 60.9607C141.978 61.608 141.037 62 140 62V64V66C142.071 66 143.961 65.2107 145.381 63.9202L144.035 62.4404ZM140 64V62H93V64V66H140V64ZM93 64L93 62C92.435 62 91.9004 61.8826 91.4143 61.6723L90.6201 63.5078L89.8259 65.3434C90.7994 65.7646 91.8735 66 93 66L93 64ZM90.6201 63.5078L91.4012 61.6666C91.3838 61.6593 91.3682 61.6529 91.3549 61.6476C91.3417 61.6424 91.3303 61.638 91.3213 61.6346C91.3125 61.6312 91.3051 61.6285 91.3006 61.6268C91.2983 61.6259 91.2963 61.6252 91.2951 61.6248C91.2945 61.6245 91.2939 61.6243 91.2935 61.6242C91.2931 61.6241 91.293 61.624 91.2928 61.6239C91.292 61.6237 91.2945 61.6246 91.2981 61.6259C91.3018 61.6273 91.3082 61.6297 91.3163 61.6328C91.332 61.6389 91.3583 61.6494 91.3906 61.6636L90.585 63.4941L89.7793 65.3247C89.8174 65.3415 89.8495 65.3543 89.8711 65.3626C89.8917 65.3706 89.9089 65.3769 89.9122 65.3781C89.9158 65.3795 89.9141 65.3788 89.9133 65.3785C89.9118 65.378 89.9074 65.3763 89.9014 65.3741C89.89 65.3697 89.8675 65.361 89.839 65.349L90.6201 63.5078ZM90.585 63.4941L91.3909 61.6637C91.3991 61.6673 91.4046 61.6699 91.4058 61.6705C91.4069 61.6709 91.406 61.6705 91.4003 61.6678C91.3973 61.6664 91.3946 61.6651 91.39 61.6629C91.3858 61.6609 91.3804 61.6583 91.3746 61.6555C91.3631 61.6501 91.347 61.6424 91.3286 61.634L90.4912 63.4502L89.6538 65.2664C89.651 65.2651 89.6505 65.2649 89.6546 65.2668C89.6619 65.2703 89.6616 65.2702 89.6757 65.2769C89.6939 65.2856 89.7331 65.3044 89.7791 65.3246L90.585 63.4941ZM90.4912 63.4502L91.3286 61.634C91.277 61.6102 91.259 61.6019 91.2428 61.5939L90.3623 63.3896L89.4818 65.1854C89.5508 65.2192 89.6191 65.2504 89.6538 65.2664L90.4912 63.4502ZM90.3623 63.3896L91.2428 61.5939C91.2263 61.5858 91.2086 61.5766 91.1578 61.5502L90.2344 63.3242L89.311 65.0983C89.3451 65.1161 89.4122 65.1513 89.4818 65.1854L90.3623 63.3896ZM90.2344 63.3242L91.1578 61.5502C91.1271 61.5342 91.0993 61.5193 91.0739 61.5053L90.1084 63.2568L89.1429 65.0084C89.2008 65.0403 89.2571 65.0703 89.311 65.0983L90.2344 63.3242ZM90.1084 63.2568L91.0739 61.5053C91.0586 61.4969 91.0406 61.4865 90.9998 61.4629L89.9971 63.1934L88.9943 64.9238C89.0274 64.943 89.0833 64.9755 89.1429 65.0084L90.1084 63.2568ZM89.9971 63.1934L90.9998 61.4629C90.9817 61.4524 90.965 61.4429 90.9523 61.4356C90.9372 61.4271 90.9309 61.4235 90.9214 61.4181C90.9047 61.4085 90.9042 61.408 90.9097 61.4114L89.8623 63.1152L88.8149 64.8191C88.8646 64.8496 88.9091 64.8752 88.9374 64.8914C88.9761 64.9134 88.978 64.9143 88.9943 64.9238L89.9971 63.1934ZM89.8623 63.1152L90.9097 61.4114C90.8842 61.3957 90.8535 61.3757 90.7939 61.3362L89.6885 63.0029L88.583 64.6697C88.6383 64.7063 88.7228 64.7624 88.8149 64.8191L89.8623 63.1152ZM89.6885 63.0029L90.7939 61.3362C90.7817 61.3281 90.7709 61.3211 90.7633 61.3161C90.7594 61.3136 90.7559 61.3113 90.7532 61.3096C90.75 61.3075 90.7487 61.3067 90.7467 61.3054C90.7432 61.3031 90.7431 61.303 90.7443 61.3038C90.7457 61.3048 90.7499 61.3075 90.756 61.3117L89.6318 62.9658L88.5077 64.62C88.537 64.6399 88.5626 64.6565 88.5735 64.6635C88.5816 64.6688 88.582 64.669 88.5853 64.6712C88.5872 64.6724 88.5859 64.6716 88.583 64.6697L89.6885 63.0029ZM89.6318 62.9658L90.756 61.3117C90.6693 61.2528 90.5815 61.1874 90.492 61.1152L89.2363 62.6719L87.9807 64.2286C88.1467 64.3625 88.3222 64.4939 88.5077 64.62L89.6318 62.9658ZM89.2363 62.6719L90.492 61.1152C90.4837 61.1085 90.4761 61.1024 90.4704 61.0978C90.4634 61.0922 90.4608 61.0902 90.4564 61.0866C90.4488 61.0806 90.4488 61.0805 90.4514 61.0827L89.1758 62.623L87.9001 64.1634C87.9228 64.1822 87.9429 64.1983 87.9556 64.2085C87.9728 64.2223 87.9737 64.223 87.9807 64.2286L89.2363 62.6719ZM89.1758 62.623L90.4514 61.0827C90.2565 60.9213 90.0774 60.7422 89.9166 60.548L88.376 61.8232L86.8353 63.0985C87.1564 63.4864 87.5131 63.8429 87.9001 64.1634L89.1758 62.623ZM88.376 61.8232L89.9166 60.548C89.9186 60.5503 89.9183 60.55 89.9123 60.5425C89.9089 60.5382 89.9065 60.5353 89.9012 60.5286C89.8966 60.523 89.8907 60.5155 89.8841 60.5074L88.3271 61.7627L86.7702 63.018C86.7762 63.0254 86.7768 63.0263 86.7907 63.0436C86.8009 63.0564 86.8168 63.0762 86.8353 63.0985L88.376 61.8232ZM88.3271 61.7627L89.8841 60.5074C89.8114 60.4171 89.746 60.3293 89.6876 60.2434L88.0332 61.3672L86.3788 62.491C86.5053 62.6772 86.6369 62.8527 86.7702 63.018L88.3271 61.7627ZM88.0332 61.3672L89.6876 60.2434C89.6922 60.2502 89.6934 60.2522 89.6856 60.2401C89.6838 60.2373 89.6819 60.2343 89.6794 60.2304C89.6771 60.2267 89.674 60.2219 89.6709 60.2171C89.6647 60.2074 89.6563 60.1943 89.6469 60.18L87.9717 61.2725L86.2964 62.365C86.3013 62.3724 86.3019 62.3734 86.3188 62.3999C86.3314 62.4195 86.353 62.4531 86.3788 62.491L88.0332 61.3672ZM87.9717 61.2725L89.6469 60.18C89.6367 60.1643 89.627 60.1496 89.6196 60.1383C89.6113 60.1258 89.6059 60.1176 89.6005 60.1093C89.59 60.0932 89.5873 60.0889 89.5879 60.0897L87.8838 61.1367L86.1797 62.1837C86.2266 62.26 86.2921 62.3583 86.2964 62.365L87.9717 61.2725ZM87.8838 61.1367L89.5879 60.0897C89.591 60.0949 89.5904 60.0941 89.5809 60.0775C89.5755 60.0681 89.5718 60.0615 89.5633 60.0467C89.5562 60.0341 89.5467 60.0175 89.5363 59.9996L87.8057 61.002L86.075 62.0043C86.0848 62.0212 86.0856 62.023 86.1078 62.0618C86.124 62.0902 86.1494 62.1343 86.1797 62.1837L87.8838 61.1367ZM87.8057 61.002L89.5363 59.9996C89.512 59.9576 89.5022 59.9405 89.4939 59.9255L87.7422 60.8906L85.9905 61.8557C86.0235 61.9157 86.0565 61.9724 86.075 62.0043L87.8057 61.002ZM87.7422 60.8906L89.4939 59.9255C89.481 59.902 89.4699 59.8829 89.4628 59.8707C89.4591 59.8646 89.456 59.8594 89.454 59.8559C89.4522 59.8529 89.4503 59.8497 89.4501 59.8493C89.4494 59.8483 89.45 59.8493 89.451 59.8509C89.4521 59.8527 89.4541 59.8562 89.4568 59.8607C89.4619 59.8696 89.471 59.8853 89.482 59.9055L87.7246 60.8604L85.9673 61.8152C85.981 61.8405 85.993 61.8613 86.0011 61.8752C86.0087 61.8884 86.0154 61.8995 86.0167 61.9017C86.018 61.9038 86.0176 61.9031 86.0172 61.9026C86.0167 61.9017 86.0151 61.899 86.0129 61.8953C86.0088 61.8882 86.0006 61.8741 85.9905 61.8557L87.7422 60.8906ZM87.7246 60.8604L89.4987 59.9371L89.3991 59.7457L87.625 60.6689L85.8509 61.5922L85.9505 61.7836L87.7246 60.8604ZM87.625 60.6689L89.4156 59.7781C89.4179 59.7826 89.4195 59.7859 89.4202 59.7873C89.4207 59.7885 89.4209 59.7888 89.4199 59.7868C89.4197 59.7863 89.4195 59.7858 89.4191 59.7851C89.4188 59.7845 89.4184 59.7837 89.418 59.7829C89.4173 59.7812 89.4162 59.779 89.415 59.7765C89.4127 59.7717 89.4093 59.7647 89.4053 59.7566L87.6094 60.6367L85.8134 61.5168C85.8121 61.5141 85.8113 61.5125 85.8116 61.513C85.8122 61.5143 85.8122 61.5144 85.8144 61.5189C85.8172 61.5248 85.825 61.541 85.8344 61.5598L87.625 60.6689ZM87.6094 60.6367L89.4053 59.7566C89.3972 59.7401 89.3885 59.7211 89.3652 59.6708L87.5488 60.5078L85.7324 61.3448C85.749 61.3808 85.7798 61.4482 85.8134 61.5168L87.6094 60.6367ZM87.5488 60.5078L89.3652 59.6708C89.3587 59.6565 89.3526 59.6436 89.3481 59.6341C89.3459 59.6293 89.3437 59.6246 89.342 59.6211C89.3402 59.6172 89.3388 59.6143 89.3375 59.6116C89.3319 59.5996 89.3331 59.6018 89.3363 59.6091L87.5059 60.415L85.6754 61.2209C85.6923 61.2593 85.7078 61.2925 85.7168 61.3115C85.7289 61.3373 85.7293 61.338 85.7324 61.3448L87.5488 60.5078ZM87.5059 60.415L89.3364 59.6094C89.3449 59.6287 89.3513 59.6442 89.355 59.6534C89.357 59.6581 89.3584 59.6618 89.3593 59.6639C89.36 59.6659 89.3605 59.6671 89.3603 59.6665C89.3602 59.6662 89.36 59.6659 89.3597 59.6649C89.3593 59.6641 89.3588 59.6628 89.3582 59.6613C89.3571 59.6584 89.3553 59.6537 89.3531 59.6482C89.3488 59.6374 89.3417 59.6198 89.3327 59.5986L87.4912 60.3789L85.6497 61.1592C85.6433 61.144 85.6386 61.1324 85.6367 61.1276C85.6355 61.1246 85.6337 61.12 85.6366 61.1275C85.6383 61.1317 85.6431 61.144 85.6491 61.1587C85.6553 61.1739 85.6642 61.1954 85.6753 61.2207L87.5059 60.415ZM87.4912 60.3789L89.3269 59.5851C89.1172 59.1 89 58.5656 89 58H87H85C85 59.1251 85.2344 60.1989 85.6555 61.1727L87.4912 60.3789ZM87 58H89V44H87H85V58H87ZM87 44H89C89 42.894 89.4458 41.896 90.1717 41.1704L88.7578 39.7559L87.3439 38.3414C85.8972 39.7874 85 41.7914 85 44H87ZM88.7578 39.7559L90.1719 41.1702L102.173 29.1712L100.759 27.7568L99.3447 26.3425L87.3437 38.3415L88.7578 39.7559ZM100.759 27.7568L102.173 29.1714C102.244 29.1006 102.301 29.0329 102.345 28.9745C102.368 28.9452 102.388 28.9177 102.405 28.8928C102.422 28.8679 102.437 28.845 102.45 28.8249C102.463 28.8048 102.473 28.7868 102.482 28.7716C102.491 28.7566 102.499 28.7435 102.504 28.7335C102.51 28.7236 102.514 28.7155 102.517 28.7106C102.518 28.7081 102.519 28.706 102.52 28.7048C102.52 28.7042 102.521 28.7037 102.521 28.7034C102.521 28.7032 102.521 28.7031 102.521 28.703C102.521 28.7029 102.521 28.7029 102.521 28.7029C102.521 28.7029 102.521 28.7029 102.521 28.7029C102.521 28.7029 102.521 28.7029 102.521 28.7029C102.521 28.7022 102.519 28.7059 102.517 28.7103C102.514 28.7152 102.51 28.7232 102.504 28.7331C102.499 28.743 102.492 28.756 102.483 28.771C102.474 28.7861 102.463 28.804 102.45 28.8241C102.438 28.8442 102.423 28.867 102.405 28.8919C102.388 28.9168 102.368 28.9442 102.346 28.9735C102.301 29.0319 102.244 29.0996 102.173 29.1704L100.761 27.7539L99.3488 26.3375C99.2776 26.4084 99.2202 26.4763 99.1751 26.5349C99.1525 26.5643 99.1326 26.5919 99.1153 26.6169C99.098 26.6419 99.083 26.6649 99.0702 26.6851C99.0574 26.7053 99.0465 26.7234 99.0375 26.7385C99.0286 26.7537 99.0211 26.7668 99.0155 26.7769C99.0098 26.7869 99.0054 26.7951 99.0027 26.8C99.0013 26.8025 99.0002 26.8046 98.9995 26.8058C98.9992 26.8065 98.9989 26.807 98.9987 26.8073C98.9986 26.8075 98.9986 26.8076 98.9985 26.8077C98.9985 26.8078 98.9984 26.8079 98.9984 26.8079C98.998 26.8086 99 26.8049 99.0024 26.8006C99.005 26.7958 99.0093 26.7878 99.0148 26.778C99.0204 26.7681 99.0277 26.7552 99.0365 26.7403C99.0454 26.7253 99.0562 26.7074 99.0688 26.6874C99.0815 26.6674 99.0963 26.6447 99.1135 26.6199C99.1306 26.5951 99.1503 26.5677 99.1727 26.5385C99.2174 26.4803 99.2743 26.4129 99.3449 26.3423L100.759 27.7568ZM100.761 27.7539L102.174 29.1693C102.9 28.4446 103.896 28 105 28V26V24C102.794 24 100.793 24.8957 99.3477 26.3386L100.761 27.7539ZM105 26V28H152V26V24H105V26Z" fill="var(--stroke-0, #252525)"/>
</g>
<g id="Rectangle 917">
<path d="M99 32C99 28.6863 101.686 26 105 26H152C155.314 26 158 28.6863 158 32V46C158 49.3137 155.314 52 152 52H105C101.686 52 99 49.3137 99 46V32Z" fill="var(--fill-0, #2ee8d5)"/>
<path d="M105 26V28H152V26V24H105V26ZM158 32H156V46H158H160V32H158ZM152 52V50H105V52V54H152V52ZM99 46H101V32H99H97V46H99ZM105 52V50C102.791 50 101 48.2091 101 46H99H97C97 50.4183 100.582 54 105 54V52ZM158 46H156C156 48.2091 154.209 50 152 50V52V54C156.418 54 160 50.4183 160 46H158ZM152 26V28C154.209 28 156 29.7909 156 32H158H160C160 27.5817 156.418 24 152 24V26ZM105 26V24C100.582 24 97 27.5817 97 32H99H101C101 29.7909 102.791 28 105 28V26Z" fill="var(--stroke-0, #252525)"/>
</g>
<path id="0 1" d="M99 46C99 49.3137 101.686 52 105 52L93 64C89.6863 64 87 61.3137 87 58L99 46Z" fill="var(--fill-0, #252525)" stroke="var(--stroke-0, #252525)" stroke-width="4" stroke-linejoin="round"/>
<g id="Union_2">
<path d="M67 94C67.8453 94 68.6494 94.1758 69.3789 94.4912C69.3908 94.4963 69.4031 94.5006 69.415 94.5059C69.4461 94.5196 69.477 94.5346 69.5078 94.5488C69.551 94.5687 69.5941 94.5885 69.6367 94.6094C69.6474 94.6146 69.6583 94.6197 69.6689 94.625L69.8604 94.7246C69.8706 94.7302 69.8804 94.7366 69.8906 94.7422C69.9281 94.7628 69.965 94.7843 70.002 94.8057C70.0469 94.8317 70.0925 94.8566 70.1367 94.8838C70.1827 94.912 70.2273 94.9423 70.2725 94.9717C70.304 94.9923 70.3361 95.0121 70.3672 95.0332C70.4996 95.1232 70.6274 95.2194 70.752 95.3193C70.7756 95.3383 70.7999 95.3566 70.8232 95.376C71.1143 95.6169 71.3821 95.8848 71.623 96.1758C71.6396 96.1957 71.6556 96.2161 71.6719 96.2363C71.7749 96.3641 71.8733 96.4958 71.9658 96.6318C71.9785 96.6505 71.9905 96.6697 72.0029 96.6885C72.041 96.7459 72.0791 96.8035 72.1152 96.8623C72.1389 96.9008 72.1608 96.9404 72.1836 96.9795C72.2085 97.0222 72.233 97.0651 72.2568 97.1084C72.2764 97.144 72.2955 97.1798 72.3145 97.2158C72.3399 97.2644 72.3655 97.313 72.3896 97.3623C72.4096 97.4029 72.4282 97.4442 72.4473 97.4854C72.4626 97.5185 72.4794 97.5515 72.4941 97.585C72.4992 97.5965 72.5029 97.6086 72.5078 97.6201C72.8236 98.3499 73 99.1542 73 100V114C73 115.629 72.349 117.105 71.2949 118.187C71.278 118.205 71.2613 118.224 71.2432 118.242L71.2217 118.263C71.2282 118.256 71.2357 118.251 71.2422 118.244L65.0264 124.459L59.2432 130.242L59.0352 130.44C57.9695 131.409 56.5538 132 55 132H8C7.15422 132 6.34992 131.824 5.62012 131.508C5.60857 131.503 5.59649 131.499 5.58496 131.494C5.55346 131.48 5.52242 131.465 5.49121 131.45C5.44805 131.43 5.4049 131.411 5.3623 131.39C5.31926 131.369 5.27684 131.346 5.23438 131.324C5.19209 131.302 5.15009 131.28 5.1084 131.257C5.07095 131.236 5.03402 131.215 4.99707 131.193C4.95211 131.167 4.90652 131.142 4.8623 131.115C4.80349 131.079 4.74593 131.041 4.68848 131.003C4.66966 130.99 4.6505 130.979 4.63184 130.966C4.49576 130.873 4.36409 130.775 4.23633 130.672C4.21614 130.656 4.19575 130.64 4.17578 130.623C3.8848 130.382 3.61689 130.114 3.37598 129.823C3.35944 129.803 3.34343 129.783 3.32715 129.763C3.22412 129.635 3.12565 129.503 3.0332 129.367C3.01205 129.336 2.99226 129.304 2.97168 129.272C2.94225 129.227 2.91203 129.183 2.88379 129.137C2.85662 129.093 2.83171 129.047 2.80566 129.002C2.78426 128.965 2.76282 128.928 2.74219 128.891C2.73656 128.88 2.73018 128.871 2.72461 128.86L2.625 128.669C2.61968 128.658 2.61463 128.647 2.60938 128.637C2.5885 128.594 2.56872 128.551 2.54883 128.508C2.53463 128.477 2.51955 128.446 2.50586 128.415C2.50061 128.403 2.49627 128.391 2.49121 128.379C2.17576 127.649 2 126.845 2 126V112C2 110.343 2.6715 108.842 3.75781 107.756L15.7588 95.7568C15.7596 95.756 15.7599 95.7547 15.7607 95.7539C16.8463 94.6701 18.3449 94 20 94H67Z" fill="var(--fill-0, white)"/>
<path d="M67 94C67.8453 94 68.6494 94.1758 69.3789 94.4912C69.3908 94.4963 69.4031 94.5006 69.415 94.5059C69.4461 94.5196 69.477 94.5346 69.5078 94.5488C69.551 94.5687 69.5941 94.5885 69.6367 94.6094C69.6474 94.6146 69.6583 94.6197 69.6689 94.625L69.8604 94.7246C69.8706 94.7302 69.8804 94.7366 69.8906 94.7422C69.9281 94.7628 69.965 94.7843 70.002 94.8057C70.0469 94.8317 70.0925 94.8566 70.1367 94.8838C70.1827 94.912 70.2273 94.9423 70.2725 94.9717C70.304 94.9923 70.3361 95.0121 70.3672 95.0332C70.4996 95.1232 70.6274 95.2194 70.752 95.3193C70.7756 95.3383 70.7999 95.3566 70.8232 95.376C71.1143 95.6169 71.3821 95.8848 71.623 96.1758C71.6396 96.1957 71.6556 96.2161 71.6719 96.2363C71.7749 96.3641 71.8733 96.4958 71.9658 96.6318C71.9785 96.6505 71.9905 96.6697 72.0029 96.6885C72.041 96.7459 72.0791 96.8035 72.1152 96.8623C72.1389 96.9008 72.1608 96.9404 72.1836 96.9795C72.2085 97.0222 72.233 97.0651 72.2568 97.1084C72.2764 97.144 72.2955 97.1798 72.3145 97.2158C72.3399 97.2644 72.3655 97.313 72.3896 97.3623C72.4096 97.4029 72.4282 97.4442 72.4473 97.4854C72.4626 97.5185 72.4794 97.5515 72.4941 97.585C72.4992 97.5965 72.5029 97.6086 72.5078 97.6201C72.8236 98.3499 73 99.1542 73 100V114C73 115.629 72.349 117.105 71.2949 118.187C71.278 118.205 71.2613 118.224 71.2432 118.242L71.2217 118.263C71.2282 118.256 71.2357 118.251 71.2422 118.244L65.0264 124.459L59.2432 130.242L59.0352 130.44C57.9695 131.409 56.5538 132 55 132H8C7.15422 132 6.34992 131.824 5.62012 131.508C5.60857 131.503 5.59649 131.499 5.58496 131.494C5.55346 131.48 5.52242 131.465 5.49121 131.45C5.44805 131.43 5.4049 131.411 5.3623 131.39C5.31926 131.369 5.27684 131.346 5.23438 131.324C5.19209 131.302 5.15009 131.28 5.1084 131.257C5.07095 131.236 5.03402 131.215 4.99707 131.193C4.95211 131.167 4.90652 131.142 4.8623 131.115C4.80349 131.079 4.74593 131.041 4.68848 131.003C4.66966 130.99 4.6505 130.979 4.63184 130.966C4.49576 130.873 4.36409 130.775 4.23633 130.672C4.21614 130.656 4.19575 130.64 4.17578 130.623C3.8848 130.382 3.61689 130.114 3.37598 129.823C3.35944 129.803 3.34343 129.783 3.32715 129.763C3.22412 129.635 3.12565 129.503 3.0332 129.367C3.01205 129.336 2.99226 129.304 2.97168 129.272C2.94225 129.227 2.91203 129.183 2.88379 129.137C2.85662 129.093 2.83171 129.047 2.80566 129.002C2.78426 128.965 2.76282 128.928 2.74219 128.891C2.73656 128.88 2.73018 128.871 2.72461 128.86L2.625 128.669C2.61968 128.658 2.61463 128.647 2.60938 128.637C2.5885 128.594 2.56872 128.551 2.54883 128.508C2.53463 128.477 2.51955 128.446 2.50586 128.415C2.50061 128.403 2.49627 128.391 2.49121 128.379C2.17576 127.649 2 126.845 2 126V112C2 110.343 2.6715 108.842 3.75781 107.756L15.7588 95.7568C15.7596 95.756 15.7599 95.7547 15.7607 95.7539C16.8463 94.6701 18.3449 94 20 94H67Z" fill="url(#pattern1_2431_27758)"/>
<path d="M67 94V92V92V94ZM69.3789 94.4912L68.5851 96.3269C68.5896 96.3289 68.5941 96.3308 68.5986 96.3327L69.3789 94.4912ZM69.415 94.5059L70.2209 92.6754L70.2207 92.6753L69.415 94.5059ZM69.5078 94.5488L68.6708 96.3652V96.3652L69.5078 94.5488ZM69.6367 94.6094L70.5168 92.8134V92.8134L69.6367 94.6094ZM69.6689 94.625L70.5922 92.8509C70.5815 92.8453 70.5707 92.8398 70.5598 92.8344L69.6689 94.625ZM69.8604 94.7246L70.8152 92.9673C70.8047 92.9616 70.7942 92.956 70.7836 92.9505L69.8604 94.7246ZM69.8906 94.7422L70.8557 92.9905V92.9905L69.8906 94.7422ZM70.002 94.8057L68.9996 96.5363V96.5363L70.002 94.8057ZM70.1367 94.8838L71.1837 93.1797V93.1797L70.1367 94.8838ZM70.2725 94.9717L69.18 96.6469V96.6469L70.2725 94.9717ZM70.3672 95.0332L71.491 93.3788V93.3788L70.3672 95.0332ZM70.752 95.3193L69.5001 96.8791L70.752 95.3193ZM70.8232 95.376L72.0985 93.8353L70.8232 95.376ZM71.623 96.1758L73.1634 94.9001V94.9001L71.623 96.1758ZM71.6719 96.2363L70.1152 97.492V97.492L71.6719 96.2363ZM71.9658 96.6318L73.62 95.5077V95.5077L71.9658 96.6318ZM72.0029 96.6885L70.3362 97.7939V97.7939L72.0029 96.6885ZM72.1152 96.8623L73.8191 95.8149V95.8149L72.1152 96.8623ZM72.1836 96.9795L70.4565 97.988V97.988L72.1836 96.9795ZM72.2568 97.1084L74.0084 96.1429V96.1429L72.2568 97.1084ZM72.3145 97.2158L70.5436 98.1454V98.1454L72.3145 97.2158ZM72.3896 97.3623L74.1854 96.4818V96.4818L72.3896 97.3623ZM72.4473 97.4854L70.632 98.3248V98.3248L72.4473 97.4854ZM72.4941 97.585L74.3247 96.7793L74.3246 96.7791L72.4941 97.585ZM72.5078 97.6201L70.6666 98.4012C70.6685 98.4056 70.6704 98.41 70.6723 98.4143L72.5078 97.6201ZM73 100H75H73ZM71.2949 118.187L69.8629 116.79C69.8545 116.799 69.8462 116.808 69.838 116.816L71.2949 118.187ZM71.2432 118.242L72.6241 119.689C72.6354 119.678 72.6466 119.667 72.6577 119.656L71.2432 118.242ZM71.2217 118.263L69.8142 116.842C69.0346 117.614 69.0228 118.87 69.7878 119.657C70.5528 120.444 71.8089 120.467 72.6026 119.709L71.2217 118.263ZM71.2422 118.244L72.6563 119.658C73.4374 118.878 73.4375 117.611 72.6566 116.83C71.8757 116.049 70.6094 116.049 69.8283 116.83L71.2422 118.244ZM65.0264 124.459L63.6123 123.045L63.6122 123.045L65.0264 124.459ZM59.2432 130.242L60.623 131.69C60.6346 131.679 60.646 131.668 60.6574 131.656L59.2432 130.242ZM59.0352 130.44L60.3806 131.92C60.3922 131.91 60.4037 131.899 60.415 131.888L59.0352 130.44ZM8 132L8 134H8V132ZM5.62012 131.508L6.41432 129.672C6.40996 129.67 6.40559 129.669 6.40122 129.667L5.62012 131.508ZM5.58496 131.494L4.77906 133.325L4.7793 133.325L5.58496 131.494ZM5.49121 131.45L6.32863 129.634H6.32863L5.49121 131.45ZM5.3623 131.39L4.48181 133.185H4.48181L5.3623 131.39ZM5.23438 131.324L6.15778 129.55H6.15778L5.23438 131.324ZM5.1084 131.257L4.1429 133.008H4.1429L5.1084 131.257ZM4.99707 131.193L5.99983 129.463H5.99983L4.99707 131.193ZM4.8623 131.115L3.81494 132.819H3.81494L4.8623 131.115ZM4.68848 131.003L5.79393 129.336H5.79393L4.68848 131.003ZM4.63184 130.966L3.50768 132.62H3.50768L4.63184 130.966ZM4.23633 130.672L5.49199 129.115H5.49199L4.23633 130.672ZM4.17578 130.623L2.90014 132.163H2.90014L4.17578 130.623ZM3.37598 129.823L4.91664 128.548V128.548L3.37598 129.823ZM3.32715 129.763L1.77016 131.018H1.77016L3.32715 129.763ZM3.0332 129.367L1.37878 130.491H1.37878L3.0332 129.367ZM2.97168 129.272L4.64693 128.18V128.18L2.97168 129.272ZM2.88379 129.137L1.17973 130.184H1.17973L2.88379 129.137ZM2.80566 129.002L4.53634 128H4.53634L2.80566 129.002ZM2.74219 128.891L0.990458 129.856H0.990458L2.74219 128.891ZM2.72461 128.86L0.950472 129.784C0.955977 129.794 0.961576 129.805 0.967268 129.815L2.72461 128.86ZM2.625 128.669L0.834363 129.56C0.839765 129.571 0.845265 129.581 0.850863 129.592L2.625 128.669ZM2.60938 128.637L0.813431 129.517L0.813432 129.517L2.60938 128.637ZM2.54883 128.508L4.36525 127.671H4.36525L2.54883 128.508ZM2.50586 128.415L0.67531 129.221L0.675416 129.221L2.50586 128.415ZM2.49121 128.379L4.33273 127.599C4.33081 127.594 4.32888 127.59 4.32693 127.585L2.49121 128.379ZM3.75781 107.756L5.17173 109.17L5.17191 109.17L3.75781 107.756ZM15.7588 95.7568L14.3449 94.3423L14.3447 94.3425L15.7588 95.7568ZM15.7607 95.7539L17.1727 97.1704L17.1738 97.1693L15.7607 95.7539ZM67 94V96C67.5656 96 68.1 96.1172 68.5851 96.3269L69.3789 94.4912L70.1727 92.6555C69.1989 92.2344 68.1251 92 67 92V94ZM69.3789 94.4912L68.5986 96.3327C68.6198 96.3417 68.6374 96.3488 68.6482 96.3531C68.6537 96.3553 68.6584 96.3571 68.6613 96.3582C68.6628 96.3588 68.6641 96.3593 68.6649 96.3597C68.6659 96.36 68.6662 96.3602 68.6665 96.3603C68.6671 96.3605 68.6659 96.36 68.6639 96.3592C68.6618 96.3584 68.6581 96.357 68.6534 96.355C68.6442 96.3513 68.6287 96.3449 68.6094 96.3364L69.415 94.5059L70.2207 92.6753C70.1954 92.6642 70.1739 92.6553 70.1587 92.6491C70.144 92.6431 70.1317 92.6383 70.1275 92.6366C70.12 92.6337 70.1245 92.6355 70.1276 92.6367C70.1324 92.6386 70.144 92.6433 70.1592 92.6497L69.3789 94.4912ZM69.415 94.5059L68.6091 96.3363C68.6019 96.3331 68.5996 96.3319 68.6115 96.3375C68.6143 96.3388 68.6172 96.3402 68.6211 96.342C68.6246 96.3437 68.6293 96.3459 68.6341 96.3481C68.6436 96.3526 68.6565 96.3587 68.6708 96.3652L69.5078 94.5488L70.3448 92.7324C70.338 92.7293 70.3373 92.7289 70.3115 92.7168C70.2925 92.7078 70.2593 92.6923 70.2209 92.6754L69.415 94.5059ZM69.5078 94.5488L68.6708 96.3652C68.7211 96.3885 68.7401 96.3972 68.7566 96.4053L69.6367 94.6094L70.5168 92.8134C70.4482 92.7798 70.3808 92.749 70.3448 92.7324L69.5078 94.5488ZM69.6367 94.6094L68.7566 96.4053C68.7647 96.4093 68.7717 96.4127 68.7765 96.415C68.779 96.4162 68.7812 96.4173 68.7829 96.418C68.7837 96.4184 68.7845 96.4188 68.7851 96.4191C68.7858 96.4195 68.7863 96.4197 68.7868 96.4199C68.7888 96.4209 68.7885 96.4207 68.7873 96.4202C68.7859 96.4195 68.7826 96.4179 68.7781 96.4156L69.6689 94.625L70.5598 92.8344C70.541 92.825 70.5248 92.8172 70.5189 92.8144C70.5144 92.8122 70.5143 92.8122 70.513 92.8116C70.5125 92.8113 70.5141 92.8121 70.5168 92.8134L69.6367 94.6094ZM69.6689 94.625L68.7457 96.3991L68.9371 96.4987L69.8604 94.7246L70.7836 92.9505L70.5922 92.8509L69.6689 94.625ZM69.8604 94.7246L68.9055 96.482C68.8853 96.471 68.8696 96.4619 68.8607 96.4568C68.8562 96.4541 68.8527 96.4521 68.8509 96.451C68.8493 96.45 68.8483 96.4494 68.8493 96.4501C68.8497 96.4503 68.8529 96.4522 68.8559 96.454C68.8594 96.456 68.8646 96.4591 68.8707 96.4628C68.8829 96.4699 68.902 96.481 68.9255 96.4939L69.8906 94.7422L70.8557 92.9905C70.8741 93.0006 70.8882 93.0088 70.8953 93.0129C70.899 93.0151 70.9017 93.0167 70.9026 93.0172C70.9031 93.0176 70.9038 93.018 70.9017 93.0167C70.8995 93.0154 70.8884 93.0087 70.8752 93.0011C70.8613 92.993 70.8405 92.981 70.8152 92.9673L69.8604 94.7246ZM69.8906 94.7422L68.9255 96.4939C68.9405 96.5022 68.9576 96.512 68.9996 96.5363L70.002 94.8057L71.0043 93.075C70.9724 93.0565 70.9157 93.0235 70.8557 92.9905L69.8906 94.7422ZM70.002 94.8057L68.9996 96.5363C69.0175 96.5467 69.0341 96.5562 69.0467 96.5633C69.0615 96.5718 69.0681 96.5755 69.0775 96.5809C69.0941 96.5904 69.0949 96.591 69.0897 96.5879L70.1367 94.8838L71.1837 93.1797C71.1343 93.1494 71.0902 93.124 71.0618 93.1078C71.023 93.0856 71.0212 93.0848 71.0043 93.075L70.002 94.8057ZM70.1367 94.8838L69.0897 96.5879C69.0889 96.5873 69.0932 96.59 69.1094 96.6005C69.1176 96.6059 69.1258 96.6113 69.1383 96.6196C69.1496 96.627 69.1643 96.6367 69.18 96.6469L70.2725 94.9717L71.365 93.2964C71.3583 93.2921 71.26 93.2266 71.1837 93.1797L70.1367 94.8838ZM70.2725 94.9717L69.18 96.6469C69.1944 96.6563 69.2074 96.6647 69.2171 96.6709C69.2219 96.674 69.2267 96.6771 69.2304 96.6794C69.2343 96.6819 69.2373 96.6838 69.2401 96.6856C69.2522 96.6934 69.2502 96.6922 69.2434 96.6876L70.3672 95.0332L71.491 93.3788C71.4531 93.353 71.4195 93.3314 71.3999 93.3188C71.3734 93.3019 71.3724 93.3013 71.365 93.2964L70.2725 94.9717ZM70.3672 95.0332L69.2434 96.6876C69.3227 96.7415 69.4072 96.8046 69.5001 96.8791L70.752 95.3193L72.0038 93.7596C71.8475 93.6341 71.6765 93.5048 71.491 93.3788L70.3672 95.0332ZM70.752 95.3193L69.5001 96.8791C69.5135 96.8899 69.5254 96.8992 69.534 96.906C69.5384 96.9094 69.5424 96.9126 69.5455 96.915C69.549 96.9178 69.5511 96.9194 69.5534 96.9212C69.5631 96.9288 69.5577 96.9247 69.548 96.9166L70.8232 95.376L72.0985 93.8353C72.0654 93.8079 72.0362 93.785 72.0221 93.7739C72.0109 93.7652 72.0118 93.7658 72.0056 93.761C72.0023 93.7583 72.0023 93.7583 72.0038 93.7596L70.752 95.3193ZM70.8232 95.376L69.548 96.9166C69.7422 97.0774 69.9213 97.2565 70.0827 97.4514L71.623 96.1758L73.1634 94.9001C72.8429 94.5131 72.4864 94.1564 72.0985 93.8353L70.8232 95.376ZM71.623 96.1758L70.0827 97.4514C70.0805 97.4488 70.0806 97.4488 70.0866 97.4564C70.0902 97.4608 70.0922 97.4634 70.0978 97.4704C70.1024 97.4761 70.1085 97.4837 70.1152 97.492L71.6719 96.2363L73.2286 94.9807C73.223 94.9737 73.2223 94.9728 73.2085 94.9556C73.1983 94.9429 73.1822 94.9228 73.1634 94.9001L71.623 96.1758ZM71.6719 96.2363L70.1152 97.492C70.1874 97.5815 70.2528 97.6693 70.3117 97.756L71.9658 96.6318L73.62 95.5077C73.4939 95.3222 73.3625 95.1467 73.2286 94.9807L71.6719 96.2363ZM71.9658 96.6318L70.3117 97.756C70.3075 97.75 70.3048 97.7457 70.3038 97.7443C70.303 97.7431 70.3031 97.7432 70.3054 97.7467C70.3067 97.7487 70.3075 97.75 70.3096 97.7532C70.3113 97.7559 70.3136 97.7594 70.3161 97.7633C70.3211 97.7709 70.3281 97.7817 70.3362 97.7939L72.0029 96.6885L73.6697 95.583C73.6716 95.5859 73.6724 95.5872 73.6712 95.5853C73.669 95.582 73.6687 95.5816 73.6635 95.5735C73.6565 95.5626 73.6399 95.537 73.62 95.5077L71.9658 96.6318ZM72.0029 96.6885L70.3362 97.7939C70.3757 97.8535 70.3957 97.8842 70.4114 97.9097L72.1152 96.8623L73.8191 95.8149C73.7624 95.7228 73.7063 95.6383 73.6697 95.583L72.0029 96.6885ZM72.1152 96.8623L70.4114 97.9097C70.4079 97.904 70.4079 97.9036 70.4163 97.9182C70.4213 97.9271 70.4239 97.9316 70.4319 97.9455C70.4384 97.9568 70.447 97.9717 70.4565 97.988L72.1836 96.9795L73.9107 95.9709C73.9032 95.9582 73.9023 95.9563 73.8832 95.9231C73.8691 95.8986 73.8462 95.8592 73.8191 95.8149L72.1152 96.8623ZM72.1836 96.9795L70.4565 97.988C70.4742 98.0183 70.4904 98.0468 70.5053 98.0739L72.2568 97.1084L74.0084 96.1429C73.9755 96.0833 73.9428 96.026 73.9107 95.9709L72.1836 96.9795ZM72.2568 97.1084L70.5053 98.0739C70.5161 98.0935 70.5284 98.1164 70.5436 98.1454L72.3145 97.2158L74.0853 96.2862C74.0627 96.2432 74.0368 96.1945 74.0084 96.1429L72.2568 97.1084ZM72.3145 97.2158L70.5436 98.1454C70.5713 98.1982 70.5839 98.2224 70.5939 98.2428L72.3896 97.3623L74.1854 96.4818C74.147 96.4036 74.1086 96.3306 74.0853 96.2862L72.3145 97.2158ZM72.3896 97.3623L70.5939 98.2428C70.6006 98.2564 70.6035 98.2632 70.632 98.3248L72.4473 97.4854L74.2626 96.6459C74.253 96.6252 74.2186 96.5494 74.1854 96.4818L72.3896 97.3623ZM72.4473 97.4854L70.632 98.3248C70.641 98.3443 70.6491 98.3614 70.655 98.3737C70.6579 98.3798 70.6607 98.3856 70.6628 98.39C70.6652 98.3949 70.6666 98.3978 70.6681 98.4009C70.671 98.407 70.6714 98.4079 70.6709 98.4068C70.6703 98.4054 70.6676 98.3997 70.6637 98.3909L72.4941 97.585L74.3246 96.7791C74.3031 96.7302 74.2831 96.6885 74.2738 96.6691C74.2666 96.6542 74.2667 96.6546 74.263 96.6467C74.2609 96.6424 74.2612 96.643 74.2626 96.6459L72.4473 97.4854ZM72.4941 97.585L70.6636 98.3906C70.6494 98.3583 70.6389 98.332 70.6328 98.3163C70.6297 98.3082 70.6273 98.3018 70.6259 98.2981C70.6246 98.2945 70.6237 98.292 70.6239 98.2928C70.624 98.293 70.6241 98.2931 70.6242 98.2935C70.6243 98.2939 70.6245 98.2945 70.6248 98.2951C70.6252 98.2963 70.6259 98.2983 70.6268 98.3006C70.6285 98.3051 70.6312 98.3125 70.6346 98.3213C70.638 98.3303 70.6424 98.3417 70.6476 98.3549C70.6529 98.3682 70.6593 98.3838 70.6666 98.4012L72.5078 97.6201L74.349 96.839C74.361 96.8675 74.3697 96.89 74.3741 96.9014C74.3763 96.9074 74.378 96.9118 74.3785 96.9133C74.3788 96.9141 74.3795 96.9158 74.3781 96.9122C74.3769 96.9089 74.3706 96.8917 74.3626 96.8711C74.3543 96.8495 74.3415 96.8174 74.3247 96.7793L72.4941 97.585ZM72.5078 97.6201L70.6723 98.4143C70.8826 98.9004 71 99.435 71 100H73H75C75 98.8735 74.7646 97.7994 74.3434 96.8259L72.5078 97.6201ZM73 100H71V114H73H75V100H73ZM73 114H71C71 115.085 70.5689 116.066 69.8629 116.79L71.2949 118.187L72.727 119.583C74.1291 118.144 75 116.174 75 114H73ZM71.2949 118.187L69.838 116.816C69.8231 116.832 69.8107 116.846 69.8034 116.854C69.7997 116.858 69.7963 116.862 69.7944 116.864C69.7921 116.866 69.7912 116.867 69.7906 116.868C69.7894 116.869 69.793 116.865 69.7988 116.859C69.8048 116.853 69.8151 116.842 69.8287 116.828L71.2432 118.242L72.6577 119.656C72.7009 119.613 72.7351 119.575 72.7484 119.561C72.752 119.557 72.7555 119.553 72.7574 119.551C72.7598 119.548 72.7605 119.547 72.7611 119.547C72.7623 119.545 72.7583 119.55 72.7519 119.557L71.2949 118.187ZM71.2432 118.242L69.8622 116.795L69.8407 116.816L71.2217 118.263L72.6026 119.709L72.6241 119.689L71.2432 118.242ZM71.2217 118.263L72.6292 119.684C72.5982 119.714 72.5725 119.738 72.5581 119.75C72.5507 119.757 72.5449 119.762 72.5418 119.765C72.5392 119.767 72.5369 119.769 72.5387 119.768C72.5393 119.767 72.5437 119.763 72.5487 119.759C72.5541 119.754 72.5622 119.747 72.5719 119.738C72.5909 119.721 72.6209 119.694 72.6561 119.659L71.2422 118.244L69.8283 116.83C69.8446 116.813 69.8592 116.799 69.8715 116.788C69.8838 116.776 69.8944 116.767 69.9024 116.759C69.9104 116.752 69.9168 116.747 69.9204 116.744C69.9237 116.741 69.9263 116.738 69.9252 116.739C69.9251 116.739 69.9239 116.74 69.9227 116.742C69.9213 116.743 69.9193 116.744 69.9168 116.747C69.912 116.751 69.9044 116.757 69.8953 116.766C69.8861 116.774 69.8744 116.784 69.8609 116.797C69.8475 116.809 69.8316 116.824 69.8142 116.842L71.2217 118.263ZM71.2422 118.244L69.8281 116.83L63.6123 123.045L65.0264 124.459L66.4405 125.873L72.6563 119.658L71.2422 118.244ZM65.0264 124.459L63.6122 123.045L57.8289 128.828L59.2432 130.242L60.6574 131.656L66.4406 125.873L65.0264 124.459ZM59.2432 130.242L57.8633 128.794L57.6553 128.993L59.0352 130.44L60.415 131.888L60.623 131.69L59.2432 130.242ZM59.0352 130.44L57.6897 128.961C56.9778 129.608 56.037 130 55 130V132V134C57.0705 134 58.9613 133.211 60.3806 131.92L59.0352 130.44ZM55 132V130H8V132V134H55V132ZM8 132L8 130C7.43496 130 6.90042 129.883 6.41432 129.672L5.62012 131.508L4.82591 133.343C5.79942 133.765 6.87348 134 8 134L8 132ZM5.62012 131.508L6.40122 129.667C6.3838 129.659 6.36818 129.653 6.35493 129.648C6.34171 129.642 6.33025 129.638 6.32131 129.635C6.31246 129.631 6.3051 129.628 6.30057 129.627C6.29827 129.626 6.2963 129.625 6.29507 129.625C6.29446 129.625 6.29389 129.624 6.29354 129.624C6.29313 129.624 6.29297 129.624 6.29283 129.624C6.29205 129.624 6.29453 129.625 6.29808 129.626C6.30184 129.627 6.30822 129.63 6.31627 129.633C6.33201 129.639 6.35827 129.649 6.39062 129.664L5.58496 131.494L4.7793 133.325C4.81742 133.341 4.84951 133.354 4.87112 133.363C4.89167 133.371 4.9089 133.377 4.91224 133.378C4.91584 133.379 4.91408 133.379 4.91335 133.379C4.91176 133.378 4.90736 133.376 4.90144 133.374C4.88998 133.37 4.86747 133.361 4.83902 133.349L5.62012 131.508ZM5.58496 131.494L6.39086 129.664C6.39913 129.667 6.40456 129.67 6.40585 129.67C6.4069 129.671 6.40598 129.671 6.40029 129.668C6.39731 129.666 6.39463 129.665 6.38997 129.663C6.38584 129.661 6.38044 129.658 6.37463 129.656C6.36311 129.65 6.34703 129.642 6.32863 129.634L5.49121 131.45L4.65379 133.266C4.651 133.265 4.6505 133.265 4.65457 133.267C4.66193 133.27 4.66158 133.27 4.67566 133.277C4.69392 133.286 4.73312 133.304 4.77906 133.325L5.58496 131.494ZM5.49121 131.45L6.32863 129.634C6.27701 129.61 6.25904 129.602 6.2428 129.594L5.3623 131.39L4.48181 133.185C4.55077 133.219 4.6191 133.25 4.65379 133.266L5.49121 131.45ZM5.3623 131.39L6.2428 129.594C6.22633 129.586 6.20858 129.577 6.15778 129.55L5.23438 131.324L4.31097 133.098C4.34509 133.116 4.41218 133.151 4.48181 133.185L5.3623 131.39ZM5.23438 131.324L6.15778 129.55C6.12707 129.534 6.09934 129.519 6.0739 129.505L5.1084 131.257L4.1429 133.008C4.20083 133.04 4.25711 133.07 4.31097 133.098L5.23438 131.324ZM5.1084 131.257L6.0739 129.505C6.05857 129.497 6.04062 129.487 5.99983 129.463L4.99707 131.193L3.99431 132.924C4.02742 132.943 4.08334 132.976 4.1429 133.008L5.1084 131.257ZM4.99707 131.193L5.99983 129.463C5.98168 129.452 5.96497 129.443 5.9523 129.436C5.93723 129.427 5.93087 129.423 5.92137 129.418C5.90467 129.409 5.90419 129.408 5.90967 129.411L4.8623 131.115L3.81494 132.819C3.86463 132.85 3.90905 132.875 3.93744 132.891C3.97606 132.913 3.97796 132.914 3.99431 132.924L4.99707 131.193ZM4.8623 131.115L5.90967 129.411C5.88415 129.396 5.85355 129.376 5.79393 129.336L4.68848 131.003L3.58302 132.67C3.63832 132.706 3.72282 132.762 3.81494 132.819L4.8623 131.115ZM4.68848 131.003L5.79393 129.336C5.78166 129.328 5.77092 129.321 5.76329 129.316C5.75944 129.314 5.75591 129.311 5.75323 129.31C5.75003 129.308 5.74874 129.307 5.74672 129.305C5.7432 129.303 5.74312 129.303 5.74432 129.304C5.74572 129.305 5.74995 129.308 5.75599 129.312L4.63184 130.966L3.50768 132.62C3.537 132.64 3.56263 132.656 3.57348 132.664C3.58157 132.669 3.58198 132.669 3.58533 132.671C3.58717 132.672 3.58589 132.672 3.58303 132.67L4.68848 131.003ZM4.63184 130.966L5.75599 129.312C5.66934 129.253 5.5815 129.187 5.49199 129.115L4.23633 130.672L2.98066 132.229C3.14669 132.362 3.32217 132.494 3.50768 132.62L4.63184 130.966ZM4.23633 130.672L5.49199 129.115C5.48371 129.108 5.47611 129.102 5.47036 129.098C5.46339 129.092 5.46078 129.09 5.45637 129.087C5.44884 129.081 5.44876 129.08 5.45142 129.083L4.17578 130.623L2.90014 132.163C2.92277 132.182 2.94287 132.198 2.95558 132.208C2.97277 132.222 2.97372 132.223 2.98066 132.229L4.23633 130.672ZM4.17578 130.623L5.45142 129.083C5.25653 128.921 5.07741 128.742 4.91664 128.548L3.37598 129.823L1.83532 131.099C2.15637 131.486 2.51306 131.843 2.90014 132.163L4.17578 130.623ZM3.37598 129.823L4.91664 128.548C4.91858 128.55 4.91826 128.55 4.91226 128.542C4.90886 128.538 4.90654 128.535 4.90117 128.529C4.89664 128.523 4.89067 128.515 4.88413 128.507L3.32715 129.763L1.77016 131.018C1.77616 131.025 1.7768 131.026 1.79068 131.044C1.80088 131.056 1.81684 131.076 1.83532 131.099L3.37598 129.823ZM3.32715 129.763L4.88413 128.507C4.81135 128.417 4.74601 128.329 4.68762 128.243L3.0332 129.367L1.37878 130.491C1.50529 130.677 1.63689 130.853 1.77016 131.018L3.32715 129.763ZM3.0332 129.367L4.68762 128.243C4.69221 128.25 4.69338 128.252 4.68561 128.24C4.68384 128.237 4.68192 128.234 4.67939 128.23C4.67706 128.227 4.67399 128.222 4.6709 128.217C4.66467 128.207 4.65631 128.194 4.64693 128.18L2.97168 129.272L1.29643 130.365C1.30131 130.372 1.30187 130.373 1.31884 130.4C1.33141 130.419 1.35305 130.453 1.37878 130.491L3.0332 129.367ZM2.97168 129.272L4.64693 128.18C4.63673 128.164 4.62702 128.15 4.61955 128.138C4.61135 128.126 4.60592 128.118 4.60054 128.109C4.58995 128.093 4.58731 128.089 4.58785 128.09L2.88379 129.137L1.17973 130.184C1.22659 130.26 1.29212 130.358 1.29643 130.365L2.97168 129.272ZM2.88379 129.137L4.58785 128.09C4.59101 128.095 4.59038 128.094 4.58086 128.077C4.57552 128.068 4.57177 128.061 4.56334 128.047C4.55619 128.034 4.54675 128.018 4.53634 128L2.80566 129.002L1.07498 130.004C1.08478 130.021 1.08559 130.023 1.10775 130.062C1.12399 130.09 1.1494 130.134 1.17973 130.184L2.88379 129.137ZM2.80566 129.002L4.53634 128C4.51203 127.958 4.50217 127.94 4.49392 127.926L2.74219 128.891L0.990458 129.856C1.02347 129.916 1.05649 129.972 1.07498 130.004L2.80566 129.002ZM2.74219 128.891L4.49392 127.926C4.48098 127.902 4.46988 127.883 4.46275 127.871C4.45912 127.865 4.45604 127.859 4.45399 127.856C4.45217 127.853 4.45026 127.85 4.45006 127.849C4.44941 127.848 4.45003 127.849 4.451 127.851C4.45207 127.853 4.45412 127.856 4.45677 127.861C4.46193 127.87 4.47098 127.885 4.48195 127.905L2.72461 128.86L0.967268 129.815C0.981022 129.841 0.992956 129.861 1.00106 129.875C1.00872 129.888 1.0154 129.899 1.01669 129.902C1.01799 129.904 1.01758 129.903 1.01725 129.903C1.01669 129.902 1.0151 129.899 1.01295 129.895C1.00877 129.888 1.00058 129.874 0.990458 129.856L2.74219 128.891ZM2.72461 128.86L4.49875 127.937L4.39914 127.746L2.625 128.669L0.850863 129.592L0.950472 129.784L2.72461 128.86ZM2.625 128.669L4.41564 127.778C4.4179 127.783 4.41951 127.786 4.42016 127.787C4.42074 127.788 4.42091 127.789 4.41992 127.787C4.4197 127.786 4.41945 127.786 4.41913 127.785C4.41883 127.785 4.41844 127.784 4.41805 127.783C4.41725 127.781 4.41619 127.779 4.415 127.777C4.41265 127.772 4.40928 127.765 4.40532 127.757L2.60938 128.637L0.813432 129.517C0.812097 129.514 0.811325 129.512 0.811571 129.513C0.812175 129.514 0.812244 129.514 0.814406 129.519C0.817245 129.525 0.825027 129.541 0.834363 129.56L2.625 128.669ZM2.60938 128.637L4.40532 127.757C4.39721 127.74 4.38846 127.721 4.36525 127.671L2.54883 128.508L0.732408 129.345C0.748975 129.381 0.779792 129.448 0.813431 129.517L2.60938 128.637ZM2.54883 128.508L4.36525 127.671C4.35865 127.656 4.35263 127.644 4.34815 127.634C4.34592 127.629 4.3437 127.625 4.34202 127.621C4.34019 127.617 4.33882 127.614 4.33755 127.612C4.33195 127.6 4.33309 127.602 4.3363 127.609L2.50586 128.415L0.675416 129.221C0.692318 129.259 0.707846 129.293 0.716756 129.312C0.728872 129.337 0.729272 129.338 0.732408 129.345L2.54883 128.508ZM2.50586 128.415L4.33641 127.609C4.34492 127.629 4.35131 127.644 4.35505 127.653C4.35696 127.658 4.35842 127.662 4.35925 127.664C4.36005 127.666 4.36053 127.667 4.36029 127.667C4.36016 127.666 4.36005 127.666 4.35966 127.665C4.35934 127.664 4.35882 127.663 4.35825 127.661C4.35711 127.658 4.35527 127.654 4.35308 127.648C4.34877 127.637 4.34169 127.62 4.33273 127.599L2.49121 128.379L0.649692 129.159C0.643259 129.144 0.638622 129.132 0.636716 129.128C0.635495 129.125 0.633719 129.12 0.636636 129.127C0.638311 129.132 0.643128 129.144 0.649089 129.159C0.65527 129.174 0.664173 129.195 0.67531 129.221L2.50586 128.415ZM2.49121 128.379L4.32693 127.585C4.11715 127.1 4 126.566 4 126H2H0C0 127.125 0.234371 128.199 0.655491 129.173L2.49121 128.379ZM2 126H4V112H2H0V126H2ZM2 112H4C4 110.894 4.44576 109.896 5.17173 109.17L3.75781 107.756L2.34389 106.341C0.897247 107.787 0 109.791 0 112H2ZM3.75781 107.756L5.17191 109.17L17.1729 97.1712L15.7588 95.7568L14.3447 94.3425L2.34371 106.342L3.75781 107.756ZM15.7588 95.7568L17.1727 97.1714C17.2435 97.1006 17.3006 97.0329 17.3454 96.9745C17.3679 96.9452 17.3877 96.9177 17.405 96.8928C17.4222 96.8679 17.4371 96.845 17.4498 96.8249C17.4625 96.8048 17.4734 96.7868 17.4823 96.7716C17.4912 96.7566 17.4986 96.7435 17.5043 96.7335C17.5098 96.7236 17.5143 96.7155 17.5169 96.7106C17.5183 96.7081 17.5194 96.706 17.52 96.7048C17.5204 96.7042 17.5207 96.7037 17.5208 96.7034C17.5209 96.7032 17.521 96.7031 17.521 96.703C17.521 96.7029 17.5211 96.7029 17.5211 96.7029C17.5211 96.7029 17.5211 96.7029 17.5211 96.7029C17.5211 96.7029 17.5211 96.7029 17.5211 96.7029C17.5215 96.7022 17.5194 96.7059 17.517 96.7103C17.5144 96.7152 17.51 96.7232 17.5045 96.7331C17.4989 96.743 17.4915 96.756 17.4827 96.771C17.4738 96.7861 17.4629 96.804 17.4502 96.8241C17.4375 96.8442 17.4226 96.867 17.4054 96.8919C17.3882 96.9168 17.3683 96.9442 17.3458 96.9735C17.3009 97.0319 17.2437 97.0996 17.1727 97.1704L15.7607 95.7539L14.3488 94.3375C14.2776 94.4084 14.2202 94.4763 14.1751 94.5349C14.1525 94.5643 14.1326 94.5919 14.1153 94.6169C14.098 94.6419 14.083 94.6649 14.0702 94.6851C14.0574 94.7053 14.0465 94.7234 14.0375 94.7385C14.0286 94.7537 14.0211 94.7668 14.0155 94.7769C14.0098 94.7869 14.0054 94.7951 14.0027 94.8C14.0013 94.8025 14.0002 94.8046 13.9995 94.8058C13.9992 94.8065 13.9989 94.807 13.9987 94.8073C13.9986 94.8075 13.9986 94.8076 13.9985 94.8077C13.9985 94.8078 13.9984 94.8079 13.9984 94.8079C13.998 94.8086 14 94.8049 14.0024 94.8006C14.005 94.7958 14.0093 94.7878 14.0148 94.778C14.0204 94.7681 14.0277 94.7552 14.0365 94.7403C14.0454 94.7253 14.0562 94.7074 14.0688 94.6874C14.0815 94.6674 14.0963 94.6447 14.1135 94.6199C14.1306 94.5951 14.1503 94.5677 14.1727 94.5385C14.2174 94.4803 14.2743 94.4129 14.3449 94.3423L15.7588 95.7568ZM15.7607 95.7539L17.1738 97.1693C17.8996 96.4446 18.896 96 20 96V94V92C17.7938 92 15.7929 92.8957 14.3477 94.3386L15.7607 95.7539ZM20 94V96H67V94V92H20V94Z" fill="var(--stroke-0, #252525)"/>
</g>
<g id="Rectangle 917_2">
<path d="M14 100C14 96.6863 16.6863 94 20 94H67C70.3137 94 73 96.6863 73 100V114C73 117.314 70.3137 120 67 120H20C16.6863 120 14 117.314 14 114V100Z" fill="var(--fill-0, #FFE14D)"/>
<path d="M20 94V96H67V94V92H20V94ZM73 100H71V114H73H75V100H73ZM67 120V118H20V120V122H67V120ZM14 114H16V100H14H12V114H14ZM20 120V118C17.7909 118 16 116.209 16 114H14H12C12 118.418 15.5817 122 20 122V120ZM73 114H71C71 116.209 69.2091 118 67 118V120V122C71.4183 122 75 118.418 75 114H73ZM67 94V96C69.2091 96 71 97.7909 71 100H73H75C75 95.5817 71.4183 92 67 92V94ZM20 94V92C15.5817 92 12 95.5817 12 100H14H16C16 97.7909 17.7909 96 20 96V94Z" fill="var(--stroke-0, #252525)"/>
</g>
<path id="0 1_2" d="M14 114C14 117.314 16.6863 120 20 120L8 132C4.68629 132 2 129.314 2 126L14 114Z" fill="var(--fill-0, #FFE14D)" stroke="var(--stroke-0, #252525)" stroke-width="4" stroke-linejoin="round"/>
<path id="0 2" d="M14 114C14 117.314 16.6863 120 20 120L8 132C4.68629 132 2 129.314 2 126L14 114Z" fill="var(--fill-0, #252525)" stroke="var(--stroke-0, #252525)" stroke-width="4" stroke-linejoin="round"/>
</g>
<defs>
<pattern id="pattern0_2431_27758" patternUnits="userSpaceOnUse" patternTransform="matrix(3.3872 0 0 6.7744 87 26)" preserveAspectRatio="none" viewBox="0 0 2.92 5.84" width="1" height="1">
<use xlink:href="#pattern0_2431_27758_inner" transform="translate(-2.92 0)"/>
<g id="pattern0_2431_27758_inner">
<circle id="Ellipse 248" cx="1" cy="1" r="1" fill="var(--fill-0, #252525)"/>
</g>
<use xlink:href="#pattern0_2431_27758_inner" transform="translate(-1.46 2.92)"/>
<use xlink:href="#pattern0_2431_27758_inner" transform="translate(1.46 2.92)"/>
</pattern><pattern id="pattern1_2431_27758" patternUnits="userSpaceOnUse" patternTransform="matrix(3.3872 0 0 6.7744 2 94)" preserveAspectRatio="none" viewBox="0 0 2.92 5.84" width="1" height="1">
<use xlink:href="#pattern1_2431_27758_inner" transform="translate(-2.92 0)"/>
<g id="pattern1_2431_27758_inner">
<circle id="Ellipse 248" cx="1" cy="1" r="1" fill="var(--fill-0, #252525)"/>
</g>
<use xlink:href="#pattern1_2431_27758_inner" transform="translate(-1.46 2.92)"/>
<use xlink:href="#pattern1_2431_27758_inner" transform="translate(1.46 2.92)"/>
</pattern></defs>
</svg>
